<svg width="729.44375px" height="122px" xmlns="http://www.w3.org/2000/svg" viewBox="-114.72187500000001 14 729.44375 122" style="background: rgba(0, 0, 0, 0);" preserveAspectRatio="xMidYMid"><defs><linearGradient id="editing-shiny-gradient" x1="0.04322727117869957" x2="0.9567727288213004" y1="0.2966316784620999" y2="0.7033683215379001" gradientUnits="objectBoundingBox"><stop offset="0.0" stop-color="#ffb200"></stop><stop offset="0.5" stop-color="#e10057"></stop><stop offset="1.0" stop-color="#5A1A80"></stop></linearGradient><linearGradient id="editing-shiny-gradient2" x1="0" x2="0" y1="0" y2="1"><stop offset="0.2" stop-color="#fff" stop-opacity="0.8"></stop><stop offset="0.8" stop-color="#fff" stop-opacity="0"></stop></linearGradient><filter id="editing-shiny2" x="-100%" y="-100%" width="300%" height="300%"><feMorphology operator="erode" radius="2"></feMorphology></filter><filter id="editing-shiny" x="-100%" y="-100%" width="300%" height="300%"><feFlood flood-color="#fff" result="flood"></feFlood><feConvolveMatrix in="SourceGraphic" result="conv" order="8,8" divisor="1" kernelMatrix="0 0 0 0 0 0 0 0 0 0 0 1 1 0 0 0 0 0 0 1 1 0 0 0 0 0 1 0 0 1 0 0 0 0 1 0 0 1 0 0 0 1 0 0 0 0 1 0 0 1 1 0 0 1 1 0 0 0 0 1 1 0 0 0 "></feConvolveMatrix><feOffset dx="0" dy="4" in="conv" result="offset"></feOffset><feComposite operator="in" in="flood" in2="offset" result="comp"></feComposite><feGaussianBlur in="offset" stdDeviation="3" result="shadow"></feGaussianBlur><feColorMatrix in="shadow" type="matrix" values="0.7 0 0 0 0  0 0.7 0 0 0  0 0 0.7 0 0  0 0 0 0.3 0" result="dark-shadow"></feColorMatrix><feOffset dx="0" dy="4" in="dark-shadow" result="offset-shadow"></feOffset><feOffset dx="0" dy="2" in="conv" result="offset-2"></feOffset><feComposite operator="out" in="offset" in2="offset-2" result="edge-diff"></feComposite><feGaussianBlur in="edge-diff" stdDeviation="1" result="edge-blur"></feGaussianBlur><feColorMatrix in="edge-blur" result="edge-shadow" type="matrix" values="0 0 0 0 0  0 0 0 0 0  0 0 0 0 0  0 0 0 0.5 0"></feColorMatrix><feComposite operator="in" in="edge-shadow" in2="offset" result="edge-shadow-in"></feComposite><feOffset dx="0" dy="1" in="edge-shadow-in" result="edge-shadow-final"></feOffset><feMerge result="out"><feMergeNode in="offset-shadow"></feMergeNode><feMergeNode in="comp"></feMergeNode><feMergeNode in="edge-shadow-final"></feMergeNode><feMergeNode in="SourceGraphic"></feMergeNode></feMerge></filter></defs><g filter="url(#editing-shiny)"><g transform="translate(-8.589997202157974, 104.47000122070312)"><path d="M24.96-4.80L24.96-4.80L24.96-4.80Q24.96-9.28 26.75-18.24L26.75-18.24L17.28-18.24L13.76 0L0.38 0L8.51-42.24L22.02-42.24L18.30-23.36L27.78-23.36L31.30-42.24L44.80-42.24L44.80-42.24Q43.90-37.50 42.75-32.19L42.75-32.19L40.58-21.76L40.58-21.76Q38.14-9.60 38.14-4.29L38.14-4.29L38.14-4.29Q38.14-2.11 38.85-0.90L38.85-0.90L38.85-0.90Q35.65 1.28 31.90 1.28L31.90 1.28L31.90 1.28Q28.16 1.28 26.56-0.51L26.56-0.51L26.56-0.51Q24.96-2.30 24.96-4.80ZM72.26-10.82L72.26-10.82L72.26-10.82Q73.86-9.73 73.86-7.33L73.86-7.33L73.86-7.33Q73.86-4.93 72.64-3.39L72.64-3.39L72.64-3.39Q71.42-1.86 69.44-0.83L69.44-0.83L69.44-0.83Q65.34 1.28 60.93 1.28L60.93 1.28L60.93 1.28Q56.51 1.28 53.92 0.32L53.92 0.32L53.92 0.32Q51.33-0.64 49.60-2.43L49.60-2.43L49.60-2.43Q46.21-5.82 46.21-12.03L46.21-12.03L46.21-12.03Q46.21-21.70 51.46-27.58L51.46-27.58L51.46-27.58Q57.09-33.92 66.88-33.92L66.88-33.92L66.88-33.92Q72.96-33.92 75.97-31.36L75.97-31.36L75.97-31.36Q78.21-29.44 78.21-26.30L78.21-26.30L78.21-26.30Q78.21-15.04 58.75-15.04L58.75-15.04L58.75-15.04Q58.50-13.38 58.50-11.97L58.50-11.97L58.50-11.97Q58.50-9.02 59.81-7.90L59.81-7.90L59.81-7.90Q61.12-6.78 63.55-6.78L63.55-6.78L63.55-6.78Q65.98-6.78 68.58-7.90L68.58-7.90L68.58-7.90Q71.17-9.02 72.26-10.82ZM59.20-17.79L59.20-17.79L59.20-17.79Q63.74-17.79 66.37-20.61L66.37-20.61L66.37-20.61Q68.99-23.30 68.99-27.58L68.99-27.58L68.99-27.58Q68.99-29.06 68.45-29.86L68.45-29.86L68.45-29.86Q67.90-30.66 66.82-30.66L66.82-30.66L66.82-30.66Q65.73-30.66 64.80-30.24L64.80-30.24L64.80-30.24Q63.87-29.82 62.91-28.42L62.91-28.42L62.91-28.42Q60.54-25.22 59.20-17.79ZM95.68-3.52L95.68-3.52L95.68-3.52Q93.70 1.28 87.36 1.28L87.36 1.28L87.36 1.28Q84.16 1.28 82.11-0.96L82.11-0.96L82.11-0.96Q80.45-2.82 80.45-4.93L80.45-4.93L80.45-4.93Q80.45-9.73 82.69-20.22L82.69-20.22L87.36-44.80L100.35-46.08L94.14-13.70L94.14-13.70Q93.06-8.96 93.06-7.30L93.06-7.30L93.06-7.30Q93.06-3.65 95.68-3.52ZM116.42-3.52L116.42-3.52L116.42-3.52Q114.43 1.28 108.10 1.28L108.10 1.28L108.10 1.28Q104.90 1.28 102.85-0.96L102.85-0.96L102.85-0.96Q101.18-2.82 101.18-4.93L101.18-4.93L101.18-4.93Q101.18-9.73 103.42-20.22L103.42-20.22L108.10-44.80L121.09-46.08L114.88-13.70L114.88-13.70Q113.79-8.96 113.79-7.30L113.79-7.30L113.79-7.30Q113.79-3.65 116.42-3.52ZM135.81 1.28L135.81 1.28L135.81 1.28Q121.73 1.28 121.73-11.97L121.73-11.97L121.73-11.97Q121.73-21.38 126.91-27.46L126.91-27.46L126.91-27.46Q132.42-33.92 141.95-33.92L141.95-33.92L141.95-33.92Q148.86-33.92 152.38-30.72L152.38-30.72L152.38-30.72Q155.90-27.52 155.90-20.80L155.90-20.80L155.90-20.80Q155.90-10.56 150.40-4.61L150.40-4.61L150.40-4.61Q145.02 1.28 135.81 1.28ZM137.47-26.56L137.47-26.56L137.47-26.56Q136.70-24.83 136.10-22.24L136.10-22.24L136.10-22.24Q135.49-19.65 134.72-15.55L134.72-15.55L134.72-15.55Q133.95-11.46 133.95-6.40L133.95-6.40L133.95-6.40Q133.95-4.74 134.50-3.65L134.50-3.65L134.50-3.65Q135.04-2.56 136.51-2.56L136.51-2.56L136.51-2.56Q137.98-2.56 138.91-3.26L138.91-3.26L138.91-3.26Q139.84-3.97 140.54-5.63L140.54-5.63L140.54-5.63Q141.82-8.58 142.85-14.05L142.85-14.05L142.85-14.05Q143.87-19.52 143.97-21.89L143.97-21.89L143.97-21.89Q144.06-24.26 144.06-26.02L144.06-26.02L144.06-26.02Q144.06-27.78 143.55-28.93L143.55-28.93L143.55-28.93Q143.04-30.08 141.60-30.08L141.60-30.08L141.60-30.08Q140.16-30.08 139.20-29.18L139.20-29.18L139.20-29.18Q138.24-28.29 137.47-26.56ZM218.94 1.28L218.94 1.28L218.94 1.28Q211.20 1.28 211.20-4.74L211.20-4.74L211.20-4.74Q211.20-7.36 212.32-12.45L212.32-12.45L212.32-12.45Q213.44-17.54 213.82-19.58L213.82-19.58L213.82-19.58Q214.72-24.26 214.72-25.73L214.72-25.73L214.72-25.73Q214.72-28.99 212.29-28.99L212.29-28.99L212.29-28.99Q210.69-28.99 209.15-26.78L209.15-26.78L209.15-26.78Q207.62-24.58 206.91-20.16L206.91-20.16L202.94 0L190.46 1.28L193.92-16.13L193.92-16.13Q194.50-19.01 195.01-22.27L195.01-22.27L195.01-22.27Q195.52-25.54 195.52-26.05L195.52-26.05L195.52-26.05Q195.52-28.99 193.34-28.99L193.34-28.99L193.34-28.99Q191.87-28.99 190.27-26.82L190.27-26.82L190.27-26.82Q188.67-24.64 187.78-20.16L187.78-20.16L183.87 0L171.26 1.28L177.98-32.64L188.42-33.92L187.33-27.46L187.33-27.46Q188.99-30.91 192.06-32.42L192.06-32.42L192.06-32.42Q195.14-33.92 199.94-33.92L199.94-33.92L199.94-33.92Q202.69-33.92 204.48-32.58L204.48-32.58L204.48-32.58Q206.27-31.23 206.85-29.06L206.85-29.06L206.85-29.06Q207.94-31.30 210.72-32.61L210.72-32.61L210.72-32.61Q213.50-33.92 216.93-33.92L216.93-33.92L216.93-33.92Q220.35-33.92 222.05-33.18L222.05-33.18L222.05-33.18Q223.74-32.45 224.77-31.23L224.77-31.23L224.77-31.23Q226.50-28.99 226.50-24.90L226.50-24.90L226.50-24.90Q226.50-20.86 224.77-12.48L224.77-12.48L224.77-12.48Q223.87-8.38 223.87-6.88L223.87-6.88L223.87-6.88Q223.87-5.38 224.74-4.48L224.74-4.48L224.74-4.48Q225.60-3.58 226.88-3.46L226.88-3.46L226.88-3.46Q226.24-1.28 224.03 0L224.03 0L224.03 0Q221.82 1.28 218.94 1.28ZM252.16-7.23L252.16-7.23L252.16-7.23Q248.83-3.78 242.75-3.78L242.75-3.78L242.75-3.78Q235.14-3.78 233.54-9.34L233.54-9.34L233.54-9.34Q233.02-11.01 233.02-12.86L233.02-12.86L233.02-12.86Q233.02-14.72 233.41-16.64L233.41-16.64L236.42-32.64L249.41-33.92L245.89-15.30L245.89-15.30Q245.76-14.46 245.57-13.57L245.57-13.57L245.57-13.57Q245.38-12.67 245.38-11.74L245.38-11.74L245.38-11.74Q245.38-10.82 245.70-10.21L245.70-10.21L245.70-10.21Q246.02-9.60 246.46-9.22L246.46-9.22L246.46-9.22Q247.23-8.70 248.61-8.70L248.61-8.70L248.61-8.70Q249.98-8.70 251.17-10.37L251.17-10.37L251.17-10.37Q252.35-12.03 252.93-14.91L252.93-14.91L256.45-32.64L269.06-33.92L264.26-8.77L264.26-8.77Q261.89 3.52 257.02 8.38L257.02 8.38L257.02 8.38Q254.53 10.88 251.30 11.87L251.30 11.87L251.30 11.87Q248.06 12.86 243.90 12.86L243.90 12.86L243.90 12.86Q237.18 12.86 233.34 10.75L233.34 10.75L233.34 10.75Q229.50 8.64 229.50 5.12L229.50 5.12L229.50 5.12Q229.50 2.50 231.49 0.99L231.49 0.99L231.49 0.99Q233.47-0.51 236.54-0.51L236.54-0.51L236.54-0.51Q239.23-0.51 241.28 0.64L241.28 0.64L241.28 0.64Q242.50 1.34 243.07 2.24L243.07 2.24L243.07 2.24Q241.60 3.52 241.60 5.63L241.60 5.63L241.60 5.63Q241.60 8.45 244.16 8.45L244.16 8.45L244.16 8.45Q248.38 8.45 250.82-1.28L250.82-1.28L250.82-1.28Q251.52-4.16 252.16-7.23ZM332.29-10.69L332.29-10.69Q328.06-4.86 324-1.79L324-1.79L324-1.79Q319.94 1.28 315.74 1.28L315.74 1.28L315.74 1.28Q311.55 1.28 310.08 0.45L310.08 0.45L310.08-13.63L310.08-13.63Q306.43-3.90 299.90-0.13L299.90-0.13L299.90-0.13Q297.54 1.28 295.30 1.28L295.30 1.28L295.30 1.28Q291.01 1.28 289.15 0.45L289.15 0.45L289.15 0.45Q288.70-14.21 288.32-18.27L288.32-18.27L288.32-18.27Q287.94-22.34 287.62-24.83L287.62-24.83L287.62-24.83Q286.98-29.82 284.80-31.87L284.80-31.87L284.80-31.87Q287.55-33.92 291.39-33.92L291.39-33.92L291.39-33.92Q298.82-33.92 299.84-24.70L299.84-24.70L299.84-24.70Q300.10-22.53 300.10-20.22L300.10-20.22L300.10-20.22Q300.10-16.77 299.33-4.74L299.33-4.74L299.33-4.74Q300.86-5.44 302.50-7.97L302.50-7.97L302.50-7.97Q304.13-10.50 305.47-13.95L305.47-13.95L305.47-13.95Q308.48-21.95 308.48-28.86L308.48-28.86L308.48-28.86Q308.48-29.95 308.19-31.10L308.19-31.10L308.19-31.10Q307.90-32.26 307.58-32.58L307.58-32.58L307.58-32.58Q309.82-33.92 313.25-33.92L313.25-33.92L313.25-33.92Q316.67-33.92 318.30-31.58L318.30-31.58L318.30-31.58Q319.94-29.25 320.38-24.96L320.38-24.96L320.38-24.96Q320.90-19.52 320.90-16.26L320.90-16.26L320.90-16.26Q320.90-11.71 320.45-4.99L320.45-4.99L320.45-4.99Q323.65-7.30 326.27-14.85L326.27-14.85L326.27-14.85Q328.90-22.40 328.90-27.78L328.90-27.78L328.90-27.78Q328.90-30.14 328.51-31.55L328.51-31.55L328.51-31.55Q330.62-33.92 334.27-33.92L334.27-33.92L334.27-33.92Q336.51-33.92 338.14-32.70L338.14-32.70L338.14-32.70Q339.78-31.49 339.78-29.22L339.78-29.22L339.78-29.22Q339.78-26.94 339.10-24.51L339.10-24.51L339.10-24.51Q338.43-22.08 337.34-19.58L337.34-19.58L337.34-19.58Q335.23-14.59 332.29-10.69L332.29-10.69ZM355.46 1.28L355.46 1.28L355.46 1.28Q341.38 1.28 341.38-11.97L341.38-11.97L341.38-11.97Q341.38-21.38 346.56-27.46L346.56-27.46L346.56-27.46Q352.06-33.92 361.60-33.92L361.60-33.92L361.60-33.92Q368.51-33.92 372.03-30.72L372.03-30.72L372.03-30.72Q375.55-27.52 375.55-20.80L375.55-20.80L375.55-20.80Q375.55-10.56 370.05-4.61L370.05-4.61L370.05-4.61Q364.67 1.28 355.46 1.28ZM357.12-26.56L357.12-26.56L357.12-26.56Q356.35-24.83 355.74-22.24L355.74-22.24L355.74-22.24Q355.14-19.65 354.37-15.55L354.37-15.55L354.37-15.55Q353.60-11.46 353.60-6.40L353.60-6.40L353.60-6.40Q353.60-4.74 354.14-3.65L354.14-3.65L354.14-3.65Q354.69-2.56 356.16-2.56L356.16-2.56L356.16-2.56Q357.63-2.56 358.56-3.26L358.56-3.26L358.56-3.26Q359.49-3.97 360.19-5.63L360.19-5.63L360.19-5.63Q361.47-8.58 362.50-14.05L362.50-14.05L362.50-14.05Q363.52-19.52 363.62-21.89L363.62-21.89L363.62-21.89Q363.71-24.26 363.71-26.02L363.71-26.02L363.71-26.02Q363.71-27.78 363.20-28.93L363.20-28.93L363.20-28.93Q362.69-30.08 361.25-30.08L361.25-30.08L361.25-30.08Q359.81-30.08 358.85-29.18L358.85-29.18L358.85-29.18Q357.89-28.29 357.12-26.56ZM399.36-17.98L399.36-17.98L399.36-17.98Q401.66-22.08 401.66-26.24L401.66-26.24L401.66-26.24Q401.66-28.99 399.68-28.99L399.68-28.99L399.68-28.99Q398.14-28.99 396.54-26.37L396.54-26.37L396.54-26.37Q394.88-23.74 394.37-20.35L394.37-20.35L391.04 0L377.79 1.28L384.32-32.64L394.88-33.92L393.73-27.46L393.73-27.46Q396.86-33.92 403.90-33.92L403.90-33.92L403.90-33.92Q407.62-33.92 409.63-32L409.63-32L409.63-32Q411.65-30.08 411.65-26.14L411.65-26.14L411.65-26.14Q411.65-22.21 409.06-19.71L409.06-19.71L409.06-19.71Q406.46-17.22 402.05-17.22L402.05-17.22L402.05-17.22Q400.13-17.22 399.36-17.98ZM427.97-3.52L427.97-3.52L427.97-3.52Q425.98 1.28 419.65 1.28L419.65 1.28L419.65 1.28Q416.45 1.28 414.40-0.96L414.40-0.96L414.40-0.96Q412.74-2.82 412.74-4.93L412.74-4.93L412.74-4.93Q412.74-9.73 414.98-20.22L414.98-20.22L419.65-44.80L432.64-46.08L426.43-13.70L426.43-13.70Q425.34-8.96 425.34-7.30L425.34-7.30L425.34-7.30Q425.34-3.65 427.97-3.52ZM453.57-33.92L453.57-33.92L453.57-33.92Q455.87-33.92 457.66-33.41L457.66-33.41L457.66-33.41Q457.73-33.66 457.86-34.37L457.86-34.37L458.18-36.35L458.18-36.35Q458.43-37.63 458.82-39.74L458.82-39.74L459.84-44.80L472.58-46.08L465.47-8.96L465.47-8.96Q465.41-8.58 465.41-7.94L465.41-7.94L465.41-6.91L465.41-6.91Q465.41-5.50 466.11-4.45L466.11-4.45L466.11-4.45Q466.82-3.39 467.97-3.39L467.97-3.39L467.97-3.39Q466.69-0.38 462.78 0.90L462.78 0.90L462.78 0.90Q461.44 1.28 459.55 1.28L459.55 1.28L459.55 1.28Q457.66 1.28 455.94 0.29L455.94 0.29L455.94 0.29Q454.21-0.70 453.70-2.37L453.70-2.37L453.70-2.37Q452.67-0.70 450.62 0.29L450.62 0.29L450.62 0.29Q448.58 1.28 445.60 1.28L445.60 1.28L445.60 1.28Q442.62 1.28 440.16 0.51L440.16 0.51L440.16 0.51Q437.70-0.26 436.16-1.92L436.16-1.92L436.16-1.92Q433.34-5.18 433.34-12.61L433.34-12.61L433.34-12.61Q433.34-22.21 438.98-28.03L438.98-28.03L438.98-28.03Q444.61-33.92 453.57-33.92ZM453.12-30.08L453.12-30.08L453.12-30.08Q450.75-30.08 449.47-27.52L449.47-27.52L449.47-27.52Q448.19-24.96 446.88-18.62L446.88-18.62L446.88-18.62Q445.57-12.29 445.57-6.59L445.57-6.59L445.57-6.59Q445.57-2.69 447.87-2.69L447.87-2.69L447.87-2.69Q449.92-2.69 451.36-4.74L451.36-4.74L451.36-4.74Q452.80-6.78 453.38-10.18L453.38-10.18L456.83-28.93L456.83-28.93Q455.49-30.08 453.12-30.08ZM471.49-3.78L471.49-3.78L471.49-3.78Q471.49-6.21 473.38-7.55L473.38-7.55L473.38-7.55Q475.26-8.90 477.95-8.90L477.95-8.90L477.95-8.90Q480.64-8.90 482.27-7.55L482.27-7.55L482.27-7.55Q483.90-6.21 483.90-3.78L483.90-3.78L483.90-3.78Q483.90-1.34 482.08-0.03L482.08-0.03L482.08-0.03Q480.26 1.28 477.57 1.28L477.57 1.28L477.57 1.28Q474.88 1.28 473.18-0.03L473.18-0.03L473.18-0.03Q471.49-1.34 471.49-3.78ZM487.94-3.78L487.94-3.78L487.94-3.78Q487.94-6.21 489.82-7.55L489.82-7.55L489.82-7.55Q491.71-8.90 494.40-8.90L494.40-8.90L494.40-8.90Q497.09-8.90 498.72-7.55L498.72-7.55L498.72-7.55Q500.35-6.21 500.35-3.78L500.35-3.78L500.35-3.78Q500.35-1.34 498.53-0.03L498.53-0.03L498.53-0.03Q496.70 1.28 494.02 1.28L494.02 1.28L494.02 1.28Q491.33 1.28 489.63-0.03L489.63-0.03L489.63-0.03Q487.94-1.34 487.94-3.78ZM504.38-3.78L504.38-3.78L504.38-3.78Q504.38-6.21 506.27-7.55L506.27-7.55L506.27-7.55Q508.16-8.90 510.85-8.90L510.85-8.90L510.85-8.90Q513.54-8.90 515.17-7.55L515.17-7.55L515.17-7.55Q516.80-6.21 516.80-3.78L516.80-3.78L516.80-3.78Q516.80-1.34 514.98-0.03L514.98-0.03L514.98-0.03Q513.15 1.28 510.46 1.28L510.46 1.28L510.46 1.28Q507.78 1.28 506.08-0.03L506.08-0.03L506.08-0.03Q504.38-1.34 504.38-3.78Z" fill="url(#editing-shiny-gradient)"></path></g></g><g filter="url(#editing-shiny2)"><g transform="translate(-8.589992433786392, 104.47000122070312)"><path d="M24.96-4.80L24.96-4.80L24.96-4.80Q24.96-9.28 26.75-18.24L26.75-18.24L17.28-18.24L13.76 0L0.38 0L8.51-42.24L22.02-42.24L18.30-23.36L27.78-23.36L31.30-42.24L44.80-42.24L44.80-42.24Q43.90-37.50 42.75-32.19L42.75-32.19L40.58-21.76L40.58-21.76Q38.14-9.60 38.14-4.29L38.14-4.29L38.14-4.29Q38.14-2.11 38.85-0.90L38.85-0.90L38.85-0.90Q35.65 1.28 31.90 1.28L31.90 1.28L31.90 1.28Q28.16 1.28 26.56-0.51L26.56-0.51L26.56-0.51Q24.96-2.30 24.96-4.80ZM72.26-10.82L72.26-10.82L72.26-10.82Q73.86-9.73 73.86-7.33L73.86-7.33L73.86-7.33Q73.86-4.93 72.64-3.39L72.64-3.39L72.64-3.39Q71.42-1.86 69.44-0.83L69.44-0.83L69.44-0.83Q65.34 1.28 60.93 1.28L60.93 1.28L60.93 1.28Q56.51 1.28 53.92 0.32L53.92 0.32L53.92 0.32Q51.33-0.64 49.60-2.43L49.60-2.43L49.60-2.43Q46.21-5.82 46.21-12.03L46.21-12.03L46.21-12.03Q46.21-21.70 51.46-27.58L51.46-27.58L51.46-27.58Q57.09-33.92 66.88-33.92L66.88-33.92L66.88-33.92Q72.96-33.92 75.97-31.36L75.97-31.36L75.97-31.36Q78.21-29.44 78.21-26.30L78.21-26.30L78.21-26.30Q78.21-15.04 58.75-15.04L58.75-15.04L58.75-15.04Q58.50-13.38 58.50-11.97L58.50-11.97L58.50-11.97Q58.50-9.02 59.81-7.90L59.81-7.90L59.81-7.90Q61.12-6.78 63.55-6.78L63.55-6.78L63.55-6.78Q65.98-6.78 68.58-7.90L68.58-7.90L68.58-7.90Q71.17-9.02 72.26-10.82ZM59.20-17.79L59.20-17.79L59.20-17.79Q63.74-17.79 66.37-20.61L66.37-20.61L66.37-20.61Q68.99-23.30 68.99-27.58L68.99-27.58L68.99-27.58Q68.99-29.06 68.45-29.86L68.45-29.86L68.45-29.86Q67.90-30.66 66.82-30.66L66.82-30.66L66.82-30.66Q65.73-30.66 64.80-30.24L64.80-30.24L64.80-30.24Q63.87-29.82 62.91-28.42L62.91-28.42L62.91-28.42Q60.54-25.22 59.20-17.79ZM95.68-3.52L95.68-3.52L95.68-3.52Q93.70 1.28 87.36 1.28L87.36 1.28L87.36 1.28Q84.16 1.28 82.11-0.96L82.11-0.96L82.11-0.96Q80.45-2.82 80.45-4.93L80.45-4.93L80.45-4.93Q80.45-9.73 82.69-20.22L82.69-20.22L87.36-44.80L100.35-46.08L94.14-13.70L94.14-13.70Q93.06-8.96 93.06-7.30L93.06-7.30L93.06-7.30Q93.06-3.65 95.68-3.52ZM116.42-3.52L116.42-3.52L116.42-3.52Q114.43 1.28 108.10 1.28L108.10 1.28L108.10 1.28Q104.90 1.28 102.85-0.96L102.85-0.96L102.85-0.96Q101.18-2.82 101.18-4.93L101.18-4.93L101.18-4.93Q101.18-9.73 103.42-20.22L103.42-20.22L108.10-44.80L121.09-46.08L114.88-13.70L114.88-13.70Q113.79-8.96 113.79-7.30L113.79-7.30L113.79-7.30Q113.79-3.65 116.42-3.52ZM135.81 1.28L135.81 1.28L135.81 1.28Q121.73 1.28 121.73-11.97L121.73-11.97L121.73-11.97Q121.73-21.38 126.91-27.46L126.91-27.46L126.91-27.46Q132.42-33.92 141.95-33.92L141.95-33.92L141.95-33.92Q148.86-33.92 152.38-30.72L152.38-30.72L152.38-30.72Q155.90-27.52 155.90-20.80L155.90-20.80L155.90-20.80Q155.90-10.56 150.40-4.61L150.40-4.61L150.40-4.61Q145.02 1.28 135.81 1.28ZM137.47-26.56L137.47-26.56L137.47-26.56Q136.70-24.83 136.10-22.24L136.10-22.24L136.10-22.24Q135.49-19.65 134.72-15.55L134.72-15.55L134.72-15.55Q133.95-11.46 133.95-6.40L133.95-6.40L133.95-6.40Q133.95-4.74 134.50-3.65L134.50-3.65L134.50-3.65Q135.04-2.56 136.51-2.56L136.51-2.56L136.51-2.56Q137.98-2.56 138.91-3.26L138.91-3.26L138.91-3.26Q139.84-3.97 140.54-5.63L140.54-5.63L140.54-5.63Q141.82-8.58 142.85-14.05L142.85-14.05L142.85-14.05Q143.87-19.52 143.97-21.89L143.97-21.89L143.97-21.89Q144.06-24.26 144.06-26.02L144.06-26.02L144.06-26.02Q144.06-27.78 143.55-28.93L143.55-28.93L143.55-28.93Q143.04-30.08 141.60-30.08L141.60-30.08L141.60-30.08Q140.16-30.08 139.20-29.18L139.20-29.18L139.20-29.18Q138.24-28.29 137.47-26.56ZM218.94 1.28L218.94 1.28L218.94 1.28Q211.20 1.28 211.20-4.74L211.20-4.74L211.20-4.74Q211.20-7.36 212.32-12.45L212.32-12.45L212.32-12.45Q213.44-17.54 213.82-19.58L213.82-19.58L213.82-19.58Q214.72-24.26 214.72-25.73L214.72-25.73L214.72-25.73Q214.72-28.99 212.29-28.99L212.29-28.99L212.29-28.99Q210.69-28.99 209.15-26.78L209.15-26.78L209.15-26.78Q207.62-24.58 206.91-20.16L206.91-20.16L202.94 0L190.46 1.28L193.92-16.13L193.92-16.13Q194.50-19.01 195.01-22.27L195.01-22.27L195.01-22.27Q195.52-25.54 195.52-26.05L195.52-26.05L195.52-26.05Q195.52-28.99 193.34-28.99L193.34-28.99L193.34-28.99Q191.87-28.99 190.27-26.82L190.27-26.82L190.27-26.82Q188.67-24.64 187.78-20.16L187.78-20.16L183.87 0L171.26 1.28L177.98-32.64L188.42-33.92L187.33-27.46L187.33-27.46Q188.99-30.91 192.06-32.42L192.06-32.42L192.06-32.42Q195.14-33.92 199.94-33.92L199.94-33.92L199.94-33.92Q202.69-33.92 204.48-32.58L204.48-32.58L204.48-32.58Q206.27-31.23 206.85-29.06L206.85-29.06L206.85-29.06Q207.94-31.30 210.72-32.61L210.72-32.61L210.72-32.61Q213.50-33.92 216.93-33.92L216.93-33.92L216.93-33.92Q220.35-33.92 222.05-33.18L222.05-33.18L222.05-33.18Q223.74-32.45 224.77-31.23L224.77-31.23L224.77-31.23Q226.50-28.99 226.50-24.90L226.50-24.90L226.50-24.90Q226.50-20.86 224.77-12.48L224.77-12.48L224.77-12.48Q223.87-8.38 223.87-6.88L223.87-6.88L223.87-6.88Q223.87-5.38 224.74-4.48L224.74-4.48L224.74-4.48Q225.60-3.58 226.88-3.46L226.88-3.46L226.88-3.46Q226.24-1.28 224.03 0L224.03 0L224.03 0Q221.82 1.28 218.94 1.28ZM252.16-7.23L252.16-7.23L252.16-7.23Q248.83-3.78 242.75-3.78L242.75-3.78L242.75-3.78Q235.14-3.78 233.54-9.34L233.54-9.34L233.54-9.34Q233.02-11.01 233.02-12.86L233.02-12.86L233.02-12.86Q233.02-14.72 233.41-16.64L233.41-16.64L236.42-32.64L249.41-33.92L245.89-15.30L245.89-15.30Q245.76-14.46 245.57-13.57L245.57-13.57L245.57-13.57Q245.38-12.67 245.38-11.74L245.38-11.74L245.38-11.74Q245.38-10.82 245.70-10.21L245.70-10.21L245.70-10.21Q246.02-9.60 246.46-9.22L246.46-9.22L246.46-9.22Q247.23-8.70 248.61-8.70L248.61-8.70L248.61-8.70Q249.98-8.70 251.17-10.37L251.17-10.37L251.17-10.37Q252.35-12.03 252.93-14.91L252.93-14.91L256.45-32.64L269.06-33.92L264.26-8.77L264.26-8.77Q261.89 3.52 257.02 8.38L257.02 8.38L257.02 8.38Q254.53 10.88 251.30 11.87L251.30 11.87L251.30 11.87Q248.06 12.86 243.90 12.86L243.90 12.86L243.90 12.86Q237.18 12.86 233.34 10.75L233.34 10.75L233.34 10.75Q229.50 8.64 229.50 5.12L229.50 5.12L229.50 5.12Q229.50 2.50 231.49 0.99L231.49 0.99L231.49 0.99Q233.47-0.51 236.54-0.51L236.54-0.51L236.54-0.51Q239.23-0.51 241.28 0.64L241.28 0.64L241.28 0.64Q242.50 1.34 243.07 2.24L243.07 2.24L243.07 2.24Q241.60 3.52 241.60 5.63L241.60 5.63L241.60 5.63Q241.60 8.45 244.16 8.45L244.16 8.45L244.16 8.45Q248.38 8.45 250.82-1.28L250.82-1.28L250.82-1.28Q251.52-4.16 252.16-7.23ZM332.29-10.69L332.29-10.69Q328.06-4.86 324-1.79L324-1.79L324-1.79Q319.94 1.28 315.74 1.28L315.74 1.28L315.74 1.28Q311.55 1.28 310.08 0.45L310.08 0.45L310.08-13.63L310.08-13.63Q306.43-3.90 299.90-0.13L299.90-0.13L299.90-0.13Q297.54 1.28 295.30 1.28L295.30 1.28L295.30 1.28Q291.01 1.28 289.15 0.45L289.15 0.45L289.15 0.45Q288.70-14.21 288.32-18.27L288.32-18.27L288.32-18.27Q287.94-22.34 287.62-24.83L287.62-24.83L287.62-24.83Q286.98-29.82 284.80-31.87L284.80-31.87L284.80-31.87Q287.55-33.92 291.39-33.92L291.39-33.92L291.39-33.92Q298.82-33.92 299.84-24.70L299.84-24.70L299.84-24.70Q300.10-22.53 300.10-20.22L300.10-20.22L300.10-20.22Q300.10-16.77 299.33-4.74L299.33-4.74L299.33-4.74Q300.86-5.44 302.50-7.97L302.50-7.97L302.50-7.97Q304.13-10.50 305.47-13.95L305.47-13.95L305.47-13.95Q308.48-21.95 308.48-28.86L308.48-28.86L308.48-28.86Q308.48-29.95 308.19-31.10L308.19-31.10L308.19-31.10Q307.90-32.26 307.58-32.58L307.58-32.58L307.58-32.58Q309.82-33.92 313.25-33.92L313.25-33.92L313.25-33.92Q316.67-33.92 318.30-31.58L318.30-31.58L318.30-31.58Q319.94-29.25 320.38-24.96L320.38-24.96L320.38-24.96Q320.90-19.52 320.90-16.26L320.90-16.26L320.90-16.26Q320.90-11.71 320.45-4.99L320.45-4.99L320.45-4.99Q323.65-7.30 326.27-14.85L326.27-14.85L326.27-14.85Q328.90-22.40 328.90-27.78L328.90-27.78L328.90-27.78Q328.90-30.14 328.51-31.55L328.51-31.55L328.51-31.55Q330.62-33.92 334.27-33.92L334.27-33.92L334.27-33.92Q336.51-33.92 338.14-32.70L338.14-32.70L338.14-32.70Q339.78-31.49 339.78-29.22L339.78-29.22L339.78-29.22Q339.78-26.94 339.10-24.51L339.10-24.51L339.10-24.51Q338.43-22.08 337.34-19.58L337.34-19.58L337.34-19.58Q335.23-14.59 332.29-10.69L332.29-10.69ZM355.46 1.28L355.46 1.28L355.46 1.28Q341.38 1.28 341.38-11.97L341.38-11.97L341.38-11.97Q341.38-21.38 346.56-27.46L346.56-27.46L346.56-27.46Q352.06-33.92 361.60-33.92L361.60-33.92L361.60-33.92Q368.51-33.92 372.03-30.72L372.03-30.72L372.03-30.72Q375.55-27.52 375.55-20.80L375.55-20.80L375.55-20.80Q375.55-10.56 370.05-4.61L370.05-4.61L370.05-4.61Q364.67 1.28 355.46 1.28ZM357.12-26.56L357.12-26.56L357.12-26.56Q356.35-24.83 355.74-22.24L355.74-22.24L355.74-22.24Q355.14-19.65 354.37-15.55L354.37-15.55L354.37-15.55Q353.60-11.46 353.60-6.40L353.60-6.40L353.60-6.40Q353.60-4.74 354.14-3.65L354.14-3.65L354.14-3.65Q354.69-2.56 356.16-2.56L356.16-2.56L356.16-2.56Q357.63-2.56 358.56-3.26L358.56-3.26L358.56-3.26Q359.49-3.97 360.19-5.63L360.19-5.63L360.19-5.63Q361.47-8.58 362.50-14.05L362.50-14.05L362.50-14.05Q363.52-19.52 363.62-21.89L363.62-21.89L363.62-21.89Q363.71-24.26 363.71-26.02L363.71-26.02L363.71-26.02Q363.71-27.78 363.20-28.93L363.20-28.93L363.20-28.93Q362.69-30.08 361.25-30.08L361.25-30.08L361.25-30.08Q359.81-30.08 358.85-29.18L358.85-29.18L358.85-29.18Q357.89-28.29 357.12-26.56ZM399.36-17.98L399.36-17.98L399.36-17.98Q401.66-22.08 401.66-26.24L401.66-26.24L401.66-26.24Q401.66-28.99 399.68-28.99L399.68-28.99L399.68-28.99Q398.14-28.99 396.54-26.37L396.54-26.37L396.54-26.37Q394.88-23.74 394.37-20.35L394.37-20.35L391.04 0L377.79 1.28L384.32-32.64L394.88-33.92L393.73-27.46L393.73-27.46Q396.86-33.92 403.90-33.92L403.90-33.92L403.90-33.92Q407.62-33.92 409.63-32L409.63-32L409.63-32Q411.65-30.08 411.65-26.14L411.65-26.14L411.65-26.14Q411.65-22.21 409.06-19.71L409.06-19.71L409.06-19.71Q406.46-17.22 402.05-17.22L402.05-17.22L402.05-17.22Q400.13-17.22 399.36-17.98ZM427.97-3.52L427.97-3.52L427.97-3.52Q425.98 1.28 419.65 1.28L419.65 1.28L419.65 1.28Q416.45 1.28 414.40-0.96L414.40-0.96L414.40-0.96Q412.74-2.82 412.74-4.93L412.74-4.93L412.74-4.93Q412.74-9.73 414.98-20.22L414.98-20.22L419.65-44.80L432.64-46.08L426.43-13.70L426.43-13.70Q425.34-8.96 425.34-7.30L425.34-7.30L425.34-7.30Q425.34-3.65 427.97-3.52ZM453.57-33.92L453.57-33.92L453.57-33.92Q455.87-33.92 457.66-33.41L457.66-33.41L457.66-33.41Q457.73-33.66 457.86-34.37L457.86-34.37L458.18-36.35L458.18-36.35Q458.43-37.63 458.82-39.74L458.82-39.74L459.84-44.80L472.58-46.08L465.47-8.96L465.47-8.96Q465.41-8.58 465.41-7.94L465.41-7.94L465.41-6.91L465.41-6.91Q465.41-5.50 466.11-4.45L466.11-4.45L466.11-4.45Q466.82-3.39 467.97-3.39L467.97-3.39L467.97-3.39Q466.69-0.38 462.78 0.90L462.78 0.90L462.78 0.90Q461.44 1.28 459.55 1.28L459.55 1.28L459.55 1.28Q457.66 1.28 455.94 0.29L455.94 0.29L455.94 0.29Q454.21-0.70 453.70-2.37L453.70-2.37L453.70-2.37Q452.67-0.70 450.62 0.29L450.62 0.29L450.62 0.29Q448.58 1.28 445.60 1.28L445.60 1.28L445.60 1.28Q442.62 1.28 440.16 0.51L440.16 0.51L440.16 0.51Q437.70-0.26 436.16-1.92L436.16-1.92L436.16-1.92Q433.34-5.18 433.34-12.61L433.34-12.61L433.34-12.61Q433.34-22.21 438.98-28.03L438.98-28.03L438.98-28.03Q444.61-33.92 453.57-33.92ZM453.12-30.08L453.12-30.08L453.12-30.08Q450.75-30.08 449.47-27.52L449.47-27.52L449.47-27.52Q448.19-24.96 446.88-18.62L446.88-18.62L446.88-18.62Q445.57-12.29 445.57-6.59L445.57-6.59L445.57-6.59Q445.57-2.69 447.87-2.69L447.87-2.69L447.87-2.69Q449.92-2.69 451.36-4.74L451.36-4.74L451.36-4.74Q452.80-6.78 453.38-10.18L453.38-10.18L456.83-28.93L456.83-28.93Q455.49-30.08 453.12-30.08ZM471.49-3.78L471.49-3.78L471.49-3.78Q471.49-6.21 473.38-7.55L473.38-7.55L473.38-7.55Q475.26-8.90 477.95-8.90L477.95-8.90L477.95-8.90Q480.64-8.90 482.27-7.55L482.27-7.55L482.27-7.55Q483.90-6.21 483.90-3.78L483.90-3.78L483.90-3.78Q483.90-1.34 482.08-0.03L482.08-0.03L482.08-0.03Q480.26 1.28 477.57 1.28L477.57 1.28L477.57 1.28Q474.88 1.28 473.18-0.03L473.18-0.03L473.18-0.03Q471.49-1.34 471.49-3.78ZM487.94-3.78L487.94-3.78L487.94-3.78Q487.94-6.21 489.82-7.55L489.82-7.55L489.82-7.55Q491.71-8.90 494.40-8.90L494.40-8.90L494.40-8.90Q497.09-8.90 498.72-7.55L498.72-7.55L498.72-7.55Q500.35-6.21 500.35-3.78L500.35-3.78L500.35-3.78Q500.35-1.34 498.53-0.03L498.53-0.03L498.53-0.03Q496.70 1.28 494.02 1.28L494.02 1.28L494.02 1.28Q491.33 1.28 489.63-0.03L489.63-0.03L489.63-0.03Q487.94-1.34 487.94-3.78ZM504.38-3.78L504.38-3.78L504.38-3.78Q504.38-6.21 506.27-7.55L506.27-7.55L506.27-7.55Q508.16-8.90 510.85-8.90L510.85-8.90L510.85-8.90Q513.54-8.90 515.17-7.55L515.17-7.55L515.17-7.55Q516.80-6.21 516.80-3.78L516.80-3.78L516.80-3.78Q516.80-1.34 514.98-0.03L514.98-0.03L514.98-0.03Q513.15 1.28 510.46 1.28L510.46 1.28L510.46 1.28Q507.78 1.28 506.08-0.03L506.08-0.03L506.08-0.03Q504.38-1.34 504.38-3.78Z" fill="url(#editing-shiny-gradient2)"></path></g></g><style>text {
  font-size: 64px;
  font-family: Arial Black;
  dominant-baseline: central;
  text-anchor: middle;
}</style></svg>