<svg width="1100.9937499999999px" height="122px" xmlns="http://www.w3.org/2000/svg" viewBox="-300.49687499999993 14 1100.9937499999999 122" style="background: rgba(0, 0, 0, 0);" preserveAspectRatio="xMidYMid"><defs><linearGradient id="editing-shiny-gradient" x1="0.04322727117869957" x2="0.9567727288213004" y1="0.2966316784620999" y2="0.7033683215379001" gradientUnits="objectBoundingBox"><stop offset="0.0" stop-color="#ffb200"></stop><stop offset="0.5" stop-color="#e10057"></stop><stop offset="1.0" stop-color="#5A1A80"></stop></linearGradient><linearGradient id="editing-shiny-gradient2" x1="0" x2="0" y1="0" y2="1"><stop offset="0.2" stop-color="#fff" stop-opacity="0.8"></stop><stop offset="0.8" stop-color="#fff" stop-opacity="0"></stop></linearGradient><filter id="editing-shiny2" x="-100%" y="-100%" width="300%" height="300%"><feMorphology operator="erode" radius="2"></feMorphology></filter><filter id="editing-shiny" x="-100%" y="-100%" width="300%" height="300%"><feFlood flood-color="#fff" result="flood"></feFlood><feConvolveMatrix in="SourceGraphic" result="conv" order="8,8" divisor="1" kernelMatrix="0 0 0 0 0 0 0 0 0 0 0 1 1 0 0 0 0 0 0 1 1 0 0 0 0 0 1 0 0 1 0 0 0 0 1 0 0 1 0 0 0 1 0 0 0 0 1 0 0 1 1 0 0 1 1 0 0 0 0 1 1 0 0 0 "></feConvolveMatrix><feOffset dx="0" dy="4" in="conv" result="offset"></feOffset><feComposite operator="in" in="flood" in2="offset" result="comp"></feComposite><feGaussianBlur in="offset" stdDeviation="3" result="shadow"></feGaussianBlur><feColorMatrix in="shadow" type="matrix" values="0.7 0 0 0 0  0 0.7 0 0 0  0 0 0.7 0 0  0 0 0 0.3 0" result="dark-shadow"></feColorMatrix><feOffset dx="0" dy="4" in="dark-shadow" result="offset-shadow"></feOffset><feOffset dx="0" dy="2" in="conv" result="offset-2"></feOffset><feComposite operator="out" in="offset" in2="offset-2" result="edge-diff"></feComposite><feGaussianBlur in="edge-diff" stdDeviation="1" result="edge-blur"></feGaussianBlur><feColorMatrix in="edge-blur" result="edge-shadow" type="matrix" values="0 0 0 0 0  0 0 0 0 0  0 0 0 0 0  0 0 0 0.5 0"></feColorMatrix><feComposite operator="in" in="edge-shadow" in2="offset" result="edge-shadow-in"></feComposite><feOffset dx="0" dy="1" in="edge-shadow-in" result="edge-shadow-final"></feOffset><feMerge result="out"><feMergeNode in="offset-shadow"></feMergeNode><feMergeNode in="comp"></feMergeNode><feMergeNode in="edge-shadow-final"></feMergeNode><feMergeNode in="SourceGraphic"></feMergeNode></feMerge></filter></defs><g filter="url(#editing-shiny)"><g transform="translate(-145.93502321839333, 104.47000122070312)"><path d="M14.34 0L0.38 0L8.51-42.24L22.59-42.24L14.34 0ZM52.48-3.52L52.48-3.52L52.48-3.52Q50.50 1.28 44.16 1.28L44.16 1.28L44.16 1.28Q40.96 1.28 38.91-0.96L38.91-0.96L38.91-0.96Q37.25-2.82 37.25-4.93L37.25-4.93L37.25-4.93Q37.25-9.73 39.49-20.22L39.49-20.22L44.16-44.80L57.15-46.08L50.94-13.70L50.94-13.70Q49.86-8.96 49.86-7.30L49.86-7.30L49.86-7.30Q49.86-3.65 52.48-3.52ZM71.87 1.28L71.87 1.28L71.87 1.28Q57.79 1.28 57.79-11.97L57.79-11.97L57.79-11.97Q57.79-21.38 62.98-27.46L62.98-27.46L62.98-27.46Q68.48-33.92 78.02-33.92L78.02-33.92L78.02-33.92Q84.93-33.92 88.45-30.72L88.45-30.72L88.45-30.72Q91.97-27.52 91.97-20.80L91.97-20.80L91.97-20.80Q91.97-10.56 86.46-4.61L86.46-4.61L86.46-4.61Q81.09 1.28 71.87 1.28ZM73.54-26.56L73.54-26.56L73.54-26.56Q72.77-24.83 72.16-22.24L72.16-22.24L72.16-22.24Q71.55-19.65 70.78-15.55L70.78-15.55L70.78-15.55Q70.02-11.46 70.02-6.40L70.02-6.40L70.02-6.40Q70.02-4.74 70.56-3.65L70.56-3.65L70.56-3.65Q71.10-2.56 72.58-2.56L72.58-2.56L72.58-2.56Q74.05-2.56 74.98-3.26L74.98-3.26L74.98-3.26Q75.90-3.97 76.61-5.63L76.61-5.63L76.61-5.63Q77.89-8.58 78.91-14.05L78.91-14.05L78.91-14.05Q79.94-19.52 80.03-21.89L80.03-21.89L80.03-21.89Q80.13-24.26 80.13-26.02L80.13-26.02L80.13-26.02Q80.13-27.78 79.62-28.93L79.62-28.93L79.62-28.93Q79.10-30.08 77.66-30.08L77.66-30.08L77.66-30.08Q76.22-30.08 75.26-29.18L75.26-29.18L75.26-29.18Q74.30-28.29 73.54-26.56ZM118.98-31.55L118.98-31.55L118.98-31.55Q121.09-33.92 124.74-33.92L124.74-33.92L124.74-33.92Q126.98-33.92 128.70-32.70L128.70-32.70L128.70-32.70Q130.43-31.49 130.43-29.22L130.43-29.22L130.43-29.22Q130.43-26.94 129.73-24.51L129.73-24.51L129.73-24.51Q129.02-22.08 127.94-19.58L127.94-19.58L127.94-19.58Q125.76-14.72 122.75-10.69L122.75-10.69L122.75-10.69Q118.53-4.86 114.46-1.79L114.46-1.79L114.46-1.79Q110.40 1.28 105.98 1.28L105.98 1.28L105.98 1.28Q102.40 1.28 100.22 0.45L100.22 0.45L100.22 0.45Q99.84-12.99 99.36-17.79L99.36-17.79L99.36-17.79Q98.88-22.59 98.50-25.22L98.50-25.22L98.50-25.22Q97.86-30.34 95.94-31.55L95.94-31.55L95.94-31.55Q97.41-32.83 98.85-33.38L98.85-33.38L98.85-33.38Q100.29-33.92 103.26-33.92L103.26-33.92L103.26-33.92Q106.24-33.92 108.35-31.58L108.35-31.58L108.35-31.58Q110.46-29.25 110.88-25.12L110.88-25.12L110.88-25.12Q111.30-20.99 111.30-16L111.30-16L111.30-16Q111.30-11.01 110.91-4.99L110.91-4.99L110.91-4.99Q112.90-6.40 115.01-10.69L115.01-10.69L115.01-10.69Q117.89-16.64 118.91-23.81L118.91-23.81L118.91-23.81Q119.23-25.98 119.23-28.29L119.23-28.29L119.23-28.29Q119.23-30.59 118.98-31.55ZM158.08-10.82L158.08-10.82L158.08-10.82Q159.68-9.73 159.68-7.33L159.68-7.33L159.68-7.33Q159.68-4.93 158.46-3.39L158.46-3.39L158.46-3.39Q157.25-1.86 155.26-0.83L155.26-0.83L155.26-0.83Q151.17 1.28 146.75 1.28L146.75 1.28L146.75 1.28Q142.34 1.28 139.74 0.32L139.74 0.32L139.74 0.32Q137.15-0.64 135.42-2.43L135.42-2.43L135.42-2.43Q132.03-5.82 132.03-12.03L132.03-12.03L132.03-12.03Q132.03-21.70 137.28-27.58L137.28-27.58L137.28-27.58Q142.91-33.92 152.70-33.92L152.70-33.92L152.70-33.92Q158.78-33.92 161.79-31.36L161.79-31.36L161.79-31.36Q164.03-29.44 164.03-26.30L164.03-26.30L164.03-26.30Q164.03-15.04 144.58-15.04L144.58-15.04L144.58-15.04Q144.32-13.38 144.32-11.97L144.32-11.97L144.32-11.97Q144.32-9.02 145.63-7.90L145.63-7.90L145.63-7.90Q146.94-6.78 149.38-6.78L149.38-6.78L149.38-6.78Q151.81-6.78 154.40-7.90L154.40-7.90L154.40-7.90Q156.99-9.02 158.08-10.82ZM145.02-17.79L145.02-17.79L145.02-17.79Q149.57-17.79 152.19-20.61L152.19-20.61L152.19-20.61Q154.82-23.30 154.82-27.58L154.82-27.58L154.82-27.58Q154.82-29.06 154.27-29.86L154.27-29.86L154.27-29.86Q153.73-30.66 152.64-30.66L152.64-30.66L152.64-30.66Q151.55-30.66 150.62-30.24L150.62-30.24L150.62-30.24Q149.70-29.82 148.74-28.42L148.74-28.42L148.74-28.42Q146.37-25.22 145.02-17.79ZM199.74-7.23L199.74-7.23L199.74-7.23Q196.42-3.78 190.34-3.78L190.34-3.78L190.34-3.78Q182.72-3.78 181.12-9.34L181.12-9.34L181.12-9.34Q180.61-11.01 180.61-12.86L180.61-12.86L180.61-12.86Q180.61-14.72 180.99-16.64L180.99-16.64L184-32.64L196.99-33.92L193.47-15.30L193.47-15.30Q193.34-14.46 193.15-13.57L193.15-13.57L193.15-13.57Q192.96-12.67 192.96-11.74L192.96-11.74L192.96-11.74Q192.96-10.82 193.28-10.21L193.28-10.21L193.28-10.21Q193.60-9.60 194.05-9.22L194.05-9.22L194.05-9.22Q194.82-8.70 196.19-8.70L196.19-8.70L196.19-8.70Q197.57-8.70 198.75-10.37L198.75-10.37L198.75-10.37Q199.94-12.03 200.51-14.91L200.51-14.91L204.03-32.64L216.64-33.92L211.84-8.77L211.84-8.77Q209.47 3.52 204.61 8.38L204.61 8.38L204.61 8.38Q202.11 10.88 198.88 11.87L198.88 11.87L198.88 11.87Q195.65 12.86 191.49 12.86L191.49 12.86L191.49 12.86Q184.77 12.86 180.93 10.75L180.93 10.75L180.93 10.75Q177.09 8.64 177.09 5.12L177.09 5.12L177.09 5.12Q177.09 2.50 179.07 0.99L179.07 0.99L179.07 0.99Q181.06-0.51 184.13-0.51L184.13-0.51L184.13-0.51Q186.82-0.51 188.86 0.64L188.86 0.64L188.86 0.64Q190.08 1.34 190.66 2.24L190.66 2.24L190.66 2.24Q189.18 3.52 189.18 5.63L189.18 5.63L189.18 5.63Q189.18 8.45 191.74 8.45L191.74 8.45L191.74 8.45Q195.97 8.45 198.40-1.28L198.40-1.28L198.40-1.28Q199.10-4.16 199.74-7.23ZM232.90 1.28L232.90 1.28L232.90 1.28Q218.82 1.28 218.82-11.97L218.82-11.97L218.82-11.97Q218.82-21.38 224-27.46L224-27.46L224-27.46Q229.50-33.92 239.04-33.92L239.04-33.92L239.04-33.92Q245.95-33.92 249.47-30.72L249.47-30.72L249.47-30.72Q252.99-27.52 252.99-20.80L252.99-20.80L252.99-20.80Q252.99-10.56 247.49-4.61L247.49-4.61L247.49-4.61Q242.11 1.28 232.90 1.28ZM234.56-26.56L234.56-26.56L234.56-26.56Q233.79-24.83 233.18-22.24L233.18-22.24L233.18-22.24Q232.58-19.65 231.81-15.55L231.81-15.55L231.81-15.55Q231.04-11.46 231.04-6.40L231.04-6.40L231.04-6.40Q231.04-4.74 231.58-3.65L231.58-3.65L231.58-3.65Q232.13-2.56 233.60-2.56L233.60-2.56L233.60-2.56Q235.07-2.56 236-3.26L236-3.26L236-3.26Q236.93-3.97 237.63-5.63L237.63-5.63L237.63-5.63Q238.91-8.58 239.94-14.05L239.94-14.05L239.94-14.05Q240.96-19.52 241.06-21.89L241.06-21.89L241.06-21.89Q241.15-24.26 241.15-26.02L241.15-26.02L241.15-26.02Q241.15-27.78 240.64-28.93L240.64-28.93L240.64-28.93Q240.13-30.08 238.69-30.08L238.69-30.08L238.69-30.08Q237.25-30.08 236.29-29.18L236.29-29.18L236.29-29.18Q235.33-28.29 234.56-26.56ZM277.31-2.69L277.31-2.69L277.31-2.69Q274.24 1.28 266.62 1.28L266.62 1.28L266.62 1.28Q262.66 1.28 259.78-1.12L259.78-1.12L259.78-1.12Q256.90-3.52 256.90-6.98L256.90-6.98L256.90-6.98Q256.90-8.90 257.09-9.86L257.09-9.86L261.38-32.64L274.37-33.92L269.70-9.22L269.70-9.22Q269.44-7.81 269.44-6.98L269.44-6.98L269.44-6.98Q269.44-3.26 271.68-3.26L271.68-3.26L271.68-3.26Q274.18-3.26 275.97-6.66L275.97-6.66L275.97-6.66Q276.54-7.74 276.80-9.15L276.80-9.15L281.34-32.64L293.95-33.92L289.22-8.96L289.22-8.96Q289.02-8 289.02-6.98L289.02-6.98L289.02-6.98Q289.02-5.95 289.60-4.83L289.60-4.83L289.60-4.83Q290.18-3.71 292.03-3.46L292.03-3.46L292.03-3.46Q291.65-1.92 290.30-0.90L290.30-0.90L290.30-0.90Q287.49 1.28 284.45 1.28L284.45 1.28L284.45 1.28Q281.41 1.28 279.62 0.19L279.62 0.19L279.62 0.19Q277.82-0.90 277.31-2.69ZM333.82-31.55L333.82-31.55L333.82-31.55Q335.94-33.92 339.58-33.92L339.58-33.92L339.58-33.92Q341.82-33.92 343.55-32.70L343.55-32.70L343.55-32.70Q345.28-31.49 345.28-29.22L345.28-29.22L345.28-29.22Q345.28-26.94 344.58-24.51L344.58-24.51L344.58-24.51Q343.87-22.08 342.78-19.58L342.78-19.58L342.78-19.58Q340.61-14.72 337.60-10.69L337.60-10.69L337.60-10.69Q333.38-4.86 329.31-1.79L329.31-1.79L329.31-1.79Q325.25 1.28 320.83 1.28L320.83 1.28L320.83 1.28Q317.25 1.28 315.07 0.45L315.07 0.45L315.07 0.45Q314.69-12.99 314.21-17.79L314.21-17.79L314.21-17.79Q313.73-22.59 313.34-25.22L313.34-25.22L313.34-25.22Q312.70-30.34 310.78-31.55L310.78-31.55L310.78-31.55Q312.26-32.83 313.70-33.38L313.70-33.38L313.70-33.38Q315.14-33.92 318.11-33.92L318.11-33.92L318.11-33.92Q321.09-33.92 323.20-31.58L323.20-31.58L323.20-31.58Q325.31-29.25 325.73-25.12L325.73-25.12L325.73-25.12Q326.14-20.99 326.14-16L326.14-16L326.14-16Q326.14-11.01 325.76-4.99L325.76-4.99L325.76-4.99Q327.74-6.40 329.86-10.69L329.86-10.69L329.86-10.69Q332.74-16.64 333.76-23.81L333.76-23.81L333.76-23.81Q334.08-25.98 334.08-28.29L334.08-28.29L334.08-28.29Q334.08-30.59 333.82-31.55ZM372.93-10.82L372.93-10.82L372.93-10.82Q374.53-9.73 374.53-7.33L374.53-7.33L374.53-7.33Q374.53-4.93 373.31-3.39L373.31-3.39L373.31-3.39Q372.10-1.86 370.11-0.83L370.11-0.83L370.11-0.83Q366.02 1.28 361.60 1.28L361.60 1.28L361.60 1.28Q357.18 1.28 354.59 0.32L354.59 0.32L354.59 0.32Q352-0.64 350.27-2.43L350.27-2.43L350.27-2.43Q346.88-5.82 346.88-12.03L346.88-12.03L346.88-12.03Q346.88-21.70 352.13-27.58L352.13-27.58L352.13-27.58Q357.76-33.92 367.55-33.92L367.55-33.92L367.55-33.92Q373.63-33.92 376.64-31.36L376.64-31.36L376.64-31.36Q378.88-29.44 378.88-26.30L378.88-26.30L378.88-26.30Q378.88-15.04 359.42-15.04L359.42-15.04L359.42-15.04Q359.17-13.38 359.17-11.97L359.17-11.97L359.17-11.97Q359.17-9.02 360.48-7.90L360.48-7.90L360.48-7.90Q361.79-6.78 364.22-6.78L364.22-6.78L364.22-6.78Q366.66-6.78 369.25-7.90L369.25-7.90L369.25-7.90Q371.84-9.02 372.93-10.82ZM359.87-17.79L359.87-17.79L359.87-17.79Q364.42-17.79 367.04-20.61L367.04-20.61L367.04-20.61Q369.66-23.30 369.66-27.58L369.66-27.58L369.66-27.58Q369.66-29.06 369.12-29.86L369.12-29.86L369.12-29.86Q368.58-30.66 367.49-30.66L367.49-30.66L367.49-30.66Q366.40-30.66 365.47-30.24L365.47-30.24L365.47-30.24Q364.54-29.82 363.58-28.42L363.58-28.42L363.58-28.42Q361.22-25.22 359.87-17.79ZM401.09-17.98L401.09-17.98L401.09-17.98Q403.39-22.08 403.39-26.24L403.39-26.24L403.39-26.24Q403.39-28.99 401.41-28.99L401.41-28.99L401.41-28.99Q399.87-28.99 398.27-26.37L398.27-26.37L398.27-26.37Q396.61-23.74 396.10-20.35L396.10-20.35L392.77 0L379.52 1.28L386.05-32.64L396.61-33.92L395.46-27.46L395.46-27.46Q398.59-33.92 405.63-33.92L405.63-33.92L405.63-33.92Q409.34-33.92 411.36-32L411.36-32L411.36-32Q413.38-30.08 413.38-26.14L413.38-26.14L413.38-26.14Q413.38-22.21 410.78-19.71L410.78-19.71L410.78-19.71Q408.19-17.22 403.78-17.22L403.78-17.22L403.78-17.22Q401.86-17.22 401.09-17.98ZM434.75-7.23L434.75-7.23L434.75-7.23Q431.42-3.78 425.34-3.78L425.34-3.78L425.34-3.78Q417.73-3.78 416.13-9.34L416.13-9.34L416.13-9.34Q415.62-11.01 415.62-12.86L415.62-12.86L415.62-12.86Q415.62-14.72 416-16.64L416-16.64L419.01-32.64L432-33.92L428.48-15.30L428.48-15.30Q428.35-14.46 428.16-13.57L428.16-13.57L428.16-13.57Q427.97-12.67 427.97-11.74L427.97-11.74L427.97-11.74Q427.97-10.82 428.29-10.21L428.29-10.21L428.29-10.21Q428.61-9.60 429.06-9.22L429.06-9.22L429.06-9.22Q429.82-8.70 431.20-8.70L431.20-8.70L431.20-8.70Q432.58-8.70 433.76-10.37L433.76-10.37L433.76-10.37Q434.94-12.03 435.52-14.91L435.52-14.91L439.04-32.64L451.65-33.92L446.85-8.77L446.85-8.77Q444.48 3.52 439.62 8.38L439.62 8.38L439.62 8.38Q437.12 10.88 433.89 11.87L433.89 11.87L433.89 11.87Q430.66 12.86 426.50 12.86L426.50 12.86L426.50 12.86Q419.78 12.86 415.94 10.75L415.94 10.75L415.94 10.75Q412.10 8.64 412.10 5.12L412.10 5.12L412.10 5.12Q412.10 2.50 414.08 0.99L414.08 0.99L414.08 0.99Q416.06-0.51 419.14-0.51L419.14-0.51L419.14-0.51Q421.82-0.51 423.87 0.64L423.87 0.64L423.87 0.64Q425.09 1.34 425.66 2.24L425.66 2.24L425.66 2.24Q424.19 3.52 424.19 5.63L424.19 5.63L424.19 5.63Q424.19 8.45 426.75 8.45L426.75 8.45L426.75 8.45Q430.98 8.45 433.41-1.28L433.41-1.28L433.41-1.28Q434.11-4.16 434.75-7.23ZM490.37-31.55L490.37-31.55L490.37-31.55Q492.48-33.92 496.13-33.92L496.13-33.92L496.13-33.92Q498.37-33.92 500.10-32.70L500.10-32.70L500.10-32.70Q501.82-31.49 501.82-29.22L501.82-29.22L501.82-29.22Q501.82-26.94 501.12-24.51L501.12-24.51L501.12-24.51Q500.42-22.08 499.33-19.58L499.33-19.58L499.33-19.58Q497.15-14.72 494.14-10.69L494.14-10.69L494.14-10.69Q489.92-4.86 485.86-1.79L485.86-1.79L485.86-1.79Q481.79 1.28 477.38 1.28L477.38 1.28L477.38 1.28Q473.79 1.28 471.62 0.45L471.62 0.45L471.62 0.45Q471.23-12.99 470.75-17.79L470.75-17.79L470.75-17.79Q470.27-22.59 469.89-25.22L469.89-25.22L469.89-25.22Q469.25-30.34 467.33-31.55L467.33-31.55L467.33-31.55Q468.80-32.83 470.24-33.38L470.24-33.38L470.24-33.38Q471.68-33.92 474.66-33.92L474.66-33.92L474.66-33.92Q477.63-33.92 479.74-31.58L479.74-31.58L479.74-31.58Q481.86-29.25 482.27-25.12L482.27-25.12L482.27-25.12Q482.69-20.99 482.69-16L482.69-16L482.69-16Q482.69-11.01 482.30-4.99L482.30-4.99L482.30-4.99Q484.29-6.40 486.40-10.69L486.40-10.69L486.40-10.69Q489.28-16.64 490.30-23.81L490.30-23.81L490.30-23.81Q490.62-25.98 490.62-28.29L490.62-28.29L490.62-28.29Q490.62-30.59 490.37-31.55ZM529.47-10.82L529.47-10.82L529.47-10.82Q531.07-9.73 531.07-7.33L531.07-7.33L531.07-7.33Q531.07-4.93 529.86-3.39L529.86-3.39L529.86-3.39Q528.64-1.86 526.66-0.83L526.66-0.83L526.66-0.83Q522.56 1.28 518.14 1.28L518.14 1.28L518.14 1.28Q513.73 1.28 511.14 0.32L511.14 0.32L511.14 0.32Q508.54-0.64 506.82-2.43L506.82-2.43L506.82-2.43Q503.42-5.82 503.42-12.03L503.42-12.03L503.42-12.03Q503.42-21.70 508.67-27.58L508.67-27.58L508.67-27.58Q514.30-33.92 524.10-33.92L524.10-33.92L524.10-33.92Q530.18-33.92 533.18-31.36L533.18-31.36L533.18-31.36Q535.42-29.44 535.42-26.30L535.42-26.30L535.42-26.30Q535.42-15.04 515.97-15.04L515.97-15.04L515.97-15.04Q515.71-13.38 515.71-11.97L515.71-11.97L515.71-11.97Q515.71-9.02 517.02-7.90L517.02-7.90L517.02-7.90Q518.34-6.78 520.77-6.78L520.77-6.78L520.77-6.78Q523.20-6.78 525.79-7.90L525.79-7.90L525.79-7.90Q528.38-9.02 529.47-10.82ZM516.42-17.79L516.42-17.79L516.42-17.79Q520.96-17.79 523.58-20.61L523.58-20.61L523.58-20.61Q526.21-23.30 526.21-27.58L526.21-27.58L526.21-27.58Q526.21-29.06 525.66-29.86L525.66-29.86L525.66-29.86Q525.12-30.66 524.03-30.66L524.03-30.66L524.03-30.66Q522.94-30.66 522.02-30.24L522.02-30.24L522.02-30.24Q521.09-29.82 520.13-28.42L520.13-28.42L520.13-28.42Q517.76-25.22 516.42-17.79ZM557.63-17.98L557.63-17.98L557.63-17.98Q559.94-22.08 559.94-26.24L559.94-26.24L559.94-26.24Q559.94-28.99 557.95-28.99L557.95-28.99L557.95-28.99Q556.42-28.99 554.82-26.37L554.82-26.37L554.82-26.37Q553.15-23.74 552.64-20.35L552.64-20.35L549.31 0L536.06 1.28L542.59-32.64L553.15-33.92L552-27.46L552-27.46Q555.14-33.92 562.18-33.92L562.18-33.92L562.18-33.92Q565.89-33.92 567.90-32L567.90-32L567.90-32Q569.92-30.08 569.92-26.14L569.92-26.14L569.92-26.14Q569.92-22.21 567.33-19.71L567.33-19.71L567.33-19.71Q564.74-17.22 560.32-17.22L560.32-17.22L560.32-17.22Q558.40-17.22 557.63-17.98ZM591.30-7.23L591.30-7.23L591.30-7.23Q587.97-3.78 581.89-3.78L581.89-3.78L581.89-3.78Q574.27-3.78 572.67-9.34L572.67-9.34L572.67-9.34Q572.16-11.01 572.16-12.86L572.16-12.86L572.16-12.86Q572.16-14.72 572.54-16.64L572.54-16.64L575.55-32.64L588.54-33.92L585.02-15.30L585.02-15.30Q584.90-14.46 584.70-13.57L584.70-13.57L584.70-13.57Q584.51-12.67 584.51-11.74L584.51-11.74L584.51-11.74Q584.51-10.82 584.83-10.21L584.83-10.21L584.83-10.21Q585.15-9.60 585.60-9.22L585.60-9.22L585.60-9.22Q586.37-8.70 587.74-8.70L587.74-8.70L587.74-8.70Q589.12-8.70 590.30-10.37L590.30-10.37L590.30-10.37Q591.49-12.03 592.06-14.91L592.06-14.91L595.58-32.64L608.19-33.92L603.39-8.77L603.39-8.77Q601.02 3.52 596.16 8.38L596.16 8.38L596.16 8.38Q593.66 10.88 590.43 11.87L590.43 11.87L590.43 11.87Q587.20 12.86 583.04 12.86L583.04 12.86L583.04 12.86Q576.32 12.86 572.48 10.75L572.48 10.75L572.48 10.75Q568.64 8.64 568.64 5.12L568.64 5.12L568.64 5.12Q568.64 2.50 570.62 0.99L570.62 0.99L570.62 0.99Q572.61-0.51 575.68-0.51L575.68-0.51L575.68-0.51Q578.37-0.51 580.42 0.64L580.42 0.64L580.42 0.64Q581.63 1.34 582.21 2.24L582.21 2.24L582.21 2.24Q580.74 3.52 580.74 5.63L580.74 5.63L580.74 5.63Q580.74 8.45 583.30 8.45L583.30 8.45L583.30 8.45Q587.52 8.45 589.95-1.28L589.95-1.28L589.95-1.28Q590.66-4.16 591.30-7.23ZM669.76 1.28L669.76 1.28L669.76 1.28Q662.02 1.28 662.02-4.74L662.02-4.74L662.02-4.74Q662.02-7.36 663.14-12.45L663.14-12.45L663.14-12.45Q664.26-17.54 664.64-19.58L664.64-19.58L664.64-19.58Q665.54-24.26 665.54-25.73L665.54-25.73L665.54-25.73Q665.54-28.99 663.10-28.99L663.10-28.99L663.10-28.99Q661.50-28.99 659.97-26.78L659.97-26.78L659.97-26.78Q658.43-24.58 657.73-20.16L657.73-20.16L653.76 0L641.28 1.28L644.74-16.13L644.74-16.13Q645.31-19.01 645.82-22.27L645.82-22.27L645.82-22.27Q646.34-25.54 646.34-26.05L646.34-26.05L646.34-26.05Q646.34-28.99 644.16-28.99L644.16-28.99L644.16-28.99Q642.69-28.99 641.09-26.82L641.09-26.82L641.09-26.82Q639.49-24.64 638.59-20.16L638.59-20.16L634.69 0L622.08 1.28L628.80-32.64L639.23-33.92L638.14-27.46L638.14-27.46Q639.81-30.91 642.88-32.42L642.88-32.42L642.88-32.42Q645.95-33.92 650.75-33.92L650.75-33.92L650.75-33.92Q653.50-33.92 655.30-32.58L655.30-32.58L655.30-32.58Q657.09-31.23 657.66-29.06L657.66-29.06L657.66-29.06Q658.75-31.30 661.54-32.61L661.54-32.61L661.54-32.61Q664.32-33.92 667.74-33.92L667.74-33.92L667.74-33.92Q671.17-33.92 672.86-33.18L672.86-33.18L672.86-33.18Q674.56-32.45 675.58-31.23L675.58-31.23L675.58-31.23Q677.31-28.99 677.31-24.90L677.31-24.90L677.31-24.90Q677.31-20.86 675.58-12.48L675.58-12.48L675.58-12.48Q674.69-8.38 674.69-6.88L674.69-6.88L674.69-6.88Q674.69-5.38 675.55-4.48L675.55-4.48L675.55-4.48Q676.42-3.58 677.70-3.46L677.70-3.46L677.70-3.46Q677.06-1.28 674.85 0L674.85 0L674.85 0Q672.64 1.28 669.76 1.28ZM703.17-2.69L703.17-2.69L703.17-2.69Q700.10 1.28 692.48 1.28L692.48 1.28L692.48 1.28Q688.51 1.28 685.63-1.12L685.63-1.12L685.63-1.12Q682.75-3.52 682.75-6.98L682.75-6.98L682.75-6.98Q682.75-8.90 682.94-9.86L682.94-9.86L687.23-32.64L700.22-33.92L695.55-9.22L695.55-9.22Q695.30-7.81 695.30-6.98L695.30-6.98L695.30-6.98Q695.30-3.26 697.54-3.26L697.54-3.26L697.54-3.26Q700.03-3.26 701.82-6.66L701.82-6.66L701.82-6.66Q702.40-7.74 702.66-9.15L702.66-9.15L707.20-32.64L719.81-33.92L715.07-8.96L715.07-8.96Q714.88-8 714.88-6.98L714.88-6.98L714.88-6.98Q714.88-5.95 715.46-4.83L715.46-4.83L715.46-4.83Q716.03-3.71 717.89-3.46L717.89-3.46L717.89-3.46Q717.50-1.92 716.16-0.90L716.16-0.90L716.16-0.90Q713.34 1.28 710.30 1.28L710.30 1.28L710.30 1.28Q707.26 1.28 705.47 0.19L705.47 0.19L705.47 0.19Q703.68-0.90 703.17-2.69ZM754.43-26.62L754.43-26.62L754.43-26.62Q754.43-23.94 752.19-22.27L752.19-22.27L752.19-22.27Q749.95-20.61 746.30-20.61L746.30-20.61L746.30-20.61Q744.77-20.61 743.87-21.06L743.87-21.06L743.87-21.06Q744.58-22.72 744.80-24.80L744.80-24.80L744.80-24.80Q745.02-26.88 745.02-27.46L745.02-27.46L745.02-27.46Q745.02-30.14 743.17-30.14L743.17-30.14L743.17-30.14Q741.89-30.14 740.45-28.54L740.45-28.54L740.45-28.54Q739.01-26.94 737.79-24.45L737.79-24.45L737.79-24.45Q735.10-18.69 735.10-12.86L735.10-12.86L735.10-12.86Q735.10-9.66 736.32-8.22L736.32-8.22L736.32-8.22Q737.54-6.78 740.22-6.78L740.22-6.78L740.22-6.78Q743.94-6.78 746.88-9.86L746.88-9.86L746.88-9.86Q747.71-10.82 748.16-11.90L748.16-11.90L748.16-11.90Q750.59-10.62 750.59-7.10L750.59-7.10L750.59-7.10Q750.59-3.52 746.62-1.15L746.62-1.15L746.62-1.15Q742.53 1.28 736.00 1.28L736.00 1.28L736.00 1.28Q723.01 1.28 723.01-12.48L723.01-12.48L723.01-12.48Q723.01-22.53 728.70-28.29L728.70-28.29L728.70-28.29Q734.21-33.92 744.32-33.92L744.32-33.92L744.32-33.92Q754.43-33.92 754.43-26.62ZM788.35-7.10L788.35-7.10L788.35-7.10Q788.35-4.29 791.23-3.46L791.23-3.46L791.23-3.46Q790.53-1.09 787.78 0.19L787.78 0.19L787.78 0.19Q785.47 1.28 782.94 1.28L782.94 1.28L782.94 1.28Q780.42 1.28 779.10 0.61L779.10 0.61L779.10 0.61Q777.79-0.06 777.09-1.15L777.09-1.15L777.09-1.15Q775.94-2.82 775.94-5.95L775.94-5.95L775.94-5.95Q775.94-7.81 776.96-12.93L776.96-12.93L777.86-17.79L777.86-17.79Q778.94-23.36 778.94-25.41L778.94-25.41L778.94-25.41Q778.94-28.99 776.96-28.99L776.96-28.99L776.96-28.99Q774.46-28.99 772.86-25.34L772.86-25.34L772.86-25.34Q772.22-23.94 771.78-21.82L771.78-21.82L767.42 0L754.56 1.28L763.58-44.80L776.45-46.08L775.94-43.52L775.94-43.52Q774.14-33.66 772.61-30.34L772.61-30.34L772.61-30.34Q776.19-33.92 782.78-33.92L782.78-33.92L782.78-33.92Q789.76-33.92 791.04-29.31L791.04-29.31L791.04-29.31Q791.49-27.84 791.49-26.56L791.49-26.56L791.49-26.56Q791.49-25.28 791.39-24.29L791.39-24.29L791.39-24.29Q791.30-23.30 790.98-21.50L790.98-21.50L790.14-16.90L788.67-9.66L788.67-9.66Q788.35-8.19 788.35-7.10Z" fill="url(#editing-shiny-gradient)"></path></g></g><g filter="url(#editing-shiny2)"><g transform="translate(-145.9349164068699, 104.47000122070312)"><path d="M14.34 0L0.38 0L8.51-42.24L22.59-42.24L14.34 0ZM52.48-3.52L52.48-3.52L52.48-3.52Q50.50 1.28 44.16 1.28L44.16 1.28L44.16 1.28Q40.96 1.28 38.91-0.96L38.91-0.96L38.91-0.96Q37.25-2.82 37.25-4.93L37.25-4.93L37.25-4.93Q37.25-9.73 39.49-20.22L39.49-20.22L44.16-44.80L57.15-46.08L50.94-13.70L50.94-13.70Q49.86-8.96 49.86-7.30L49.86-7.30L49.86-7.30Q49.86-3.65 52.48-3.52ZM71.87 1.28L71.87 1.28L71.87 1.28Q57.79 1.28 57.79-11.97L57.79-11.97L57.79-11.97Q57.79-21.38 62.98-27.46L62.98-27.46L62.98-27.46Q68.48-33.92 78.02-33.92L78.02-33.92L78.02-33.92Q84.93-33.92 88.45-30.72L88.45-30.72L88.45-30.72Q91.97-27.52 91.97-20.80L91.97-20.80L91.97-20.80Q91.97-10.56 86.46-4.61L86.46-4.61L86.46-4.61Q81.09 1.28 71.87 1.28ZM73.54-26.56L73.54-26.56L73.54-26.56Q72.77-24.83 72.16-22.24L72.16-22.24L72.16-22.24Q71.55-19.65 70.78-15.55L70.78-15.55L70.78-15.55Q70.02-11.46 70.02-6.40L70.02-6.40L70.02-6.40Q70.02-4.74 70.56-3.65L70.56-3.65L70.56-3.65Q71.10-2.56 72.58-2.56L72.58-2.56L72.58-2.56Q74.05-2.56 74.98-3.26L74.98-3.26L74.98-3.26Q75.90-3.97 76.61-5.63L76.61-5.63L76.61-5.63Q77.89-8.58 78.91-14.05L78.91-14.05L78.91-14.05Q79.94-19.52 80.03-21.89L80.03-21.89L80.03-21.89Q80.13-24.26 80.13-26.02L80.13-26.02L80.13-26.02Q80.13-27.78 79.62-28.93L79.62-28.93L79.62-28.93Q79.10-30.08 77.66-30.08L77.66-30.08L77.66-30.08Q76.22-30.08 75.26-29.18L75.26-29.18L75.26-29.18Q74.30-28.29 73.54-26.56ZM118.98-31.55L118.98-31.55L118.98-31.55Q121.09-33.92 124.74-33.92L124.74-33.92L124.74-33.92Q126.98-33.92 128.70-32.70L128.70-32.70L128.70-32.70Q130.43-31.49 130.43-29.22L130.43-29.22L130.43-29.22Q130.43-26.94 129.73-24.51L129.73-24.51L129.73-24.51Q129.02-22.08 127.94-19.58L127.94-19.58L127.94-19.58Q125.76-14.72 122.75-10.69L122.75-10.69L122.75-10.69Q118.53-4.86 114.46-1.79L114.46-1.79L114.46-1.79Q110.40 1.28 105.98 1.28L105.98 1.28L105.98 1.28Q102.40 1.28 100.22 0.45L100.22 0.45L100.22 0.45Q99.84-12.99 99.36-17.79L99.36-17.79L99.36-17.79Q98.88-22.59 98.50-25.22L98.50-25.22L98.50-25.22Q97.86-30.34 95.94-31.55L95.94-31.55L95.94-31.55Q97.41-32.83 98.85-33.38L98.85-33.38L98.85-33.38Q100.29-33.92 103.26-33.92L103.26-33.92L103.26-33.92Q106.24-33.92 108.35-31.58L108.35-31.58L108.35-31.58Q110.46-29.25 110.88-25.12L110.88-25.12L110.88-25.12Q111.30-20.99 111.30-16L111.30-16L111.30-16Q111.30-11.01 110.91-4.99L110.91-4.99L110.91-4.99Q112.90-6.40 115.01-10.69L115.01-10.69L115.01-10.69Q117.89-16.64 118.91-23.81L118.91-23.81L118.91-23.81Q119.23-25.98 119.23-28.29L119.23-28.29L119.23-28.29Q119.23-30.59 118.98-31.55ZM158.08-10.82L158.08-10.82L158.08-10.82Q159.68-9.73 159.68-7.33L159.68-7.33L159.68-7.33Q159.68-4.93 158.46-3.39L158.46-3.39L158.46-3.39Q157.25-1.86 155.26-0.83L155.26-0.83L155.26-0.83Q151.17 1.28 146.75 1.28L146.75 1.28L146.75 1.28Q142.34 1.28 139.74 0.32L139.74 0.32L139.74 0.32Q137.15-0.64 135.42-2.43L135.42-2.43L135.42-2.43Q132.03-5.82 132.03-12.03L132.03-12.03L132.03-12.03Q132.03-21.70 137.28-27.58L137.28-27.58L137.28-27.58Q142.91-33.92 152.70-33.92L152.70-33.92L152.70-33.92Q158.78-33.92 161.79-31.36L161.79-31.36L161.79-31.36Q164.03-29.44 164.03-26.30L164.03-26.30L164.03-26.30Q164.03-15.04 144.58-15.04L144.58-15.04L144.58-15.04Q144.32-13.38 144.32-11.97L144.32-11.97L144.32-11.97Q144.32-9.02 145.63-7.90L145.63-7.90L145.63-7.90Q146.94-6.78 149.38-6.78L149.38-6.78L149.38-6.78Q151.81-6.78 154.40-7.90L154.40-7.90L154.40-7.90Q156.99-9.02 158.08-10.82ZM145.02-17.79L145.02-17.79L145.02-17.79Q149.57-17.79 152.19-20.61L152.19-20.61L152.19-20.61Q154.82-23.30 154.82-27.58L154.82-27.58L154.82-27.58Q154.82-29.06 154.27-29.86L154.27-29.86L154.27-29.86Q153.73-30.66 152.64-30.66L152.64-30.66L152.64-30.66Q151.55-30.66 150.62-30.24L150.62-30.24L150.62-30.24Q149.70-29.82 148.74-28.42L148.74-28.42L148.74-28.42Q146.37-25.22 145.02-17.79ZM199.74-7.23L199.74-7.23L199.74-7.23Q196.42-3.78 190.34-3.78L190.34-3.78L190.34-3.78Q182.72-3.78 181.12-9.34L181.12-9.34L181.12-9.34Q180.61-11.01 180.61-12.86L180.61-12.86L180.61-12.86Q180.61-14.72 180.99-16.64L180.99-16.64L184-32.64L196.99-33.92L193.47-15.30L193.47-15.30Q193.34-14.46 193.15-13.57L193.15-13.57L193.15-13.57Q192.96-12.67 192.96-11.74L192.96-11.74L192.96-11.74Q192.96-10.82 193.28-10.21L193.28-10.21L193.28-10.21Q193.60-9.60 194.05-9.22L194.05-9.22L194.05-9.22Q194.82-8.70 196.19-8.70L196.19-8.70L196.19-8.70Q197.57-8.70 198.75-10.37L198.75-10.37L198.75-10.37Q199.94-12.03 200.51-14.91L200.51-14.91L204.03-32.64L216.64-33.92L211.84-8.77L211.84-8.77Q209.47 3.52 204.61 8.38L204.61 8.38L204.61 8.38Q202.11 10.88 198.88 11.87L198.88 11.87L198.88 11.87Q195.65 12.86 191.49 12.86L191.49 12.86L191.49 12.86Q184.77 12.86 180.93 10.75L180.93 10.75L180.93 10.75Q177.09 8.64 177.09 5.12L177.09 5.12L177.09 5.12Q177.09 2.50 179.07 0.99L179.07 0.99L179.07 0.99Q181.06-0.51 184.13-0.51L184.13-0.51L184.13-0.51Q186.82-0.51 188.86 0.64L188.86 0.64L188.86 0.64Q190.08 1.34 190.66 2.24L190.66 2.24L190.66 2.24Q189.18 3.52 189.18 5.63L189.18 5.63L189.18 5.63Q189.18 8.45 191.74 8.45L191.74 8.45L191.74 8.45Q195.97 8.45 198.40-1.28L198.40-1.28L198.40-1.28Q199.10-4.16 199.74-7.23ZM232.90 1.28L232.90 1.28L232.90 1.28Q218.82 1.28 218.82-11.97L218.82-11.97L218.82-11.97Q218.82-21.38 224-27.46L224-27.46L224-27.46Q229.50-33.92 239.04-33.92L239.04-33.92L239.04-33.92Q245.95-33.92 249.47-30.72L249.47-30.72L249.47-30.72Q252.99-27.52 252.99-20.80L252.99-20.80L252.99-20.80Q252.99-10.56 247.49-4.61L247.49-4.61L247.49-4.61Q242.11 1.28 232.90 1.28ZM234.56-26.56L234.56-26.56L234.56-26.56Q233.79-24.83 233.18-22.24L233.18-22.24L233.18-22.24Q232.58-19.65 231.81-15.55L231.81-15.55L231.81-15.55Q231.04-11.46 231.04-6.40L231.04-6.40L231.04-6.40Q231.04-4.74 231.58-3.65L231.58-3.65L231.58-3.65Q232.13-2.56 233.60-2.56L233.60-2.56L233.60-2.56Q235.07-2.56 236-3.26L236-3.26L236-3.26Q236.93-3.97 237.63-5.63L237.63-5.63L237.63-5.63Q238.91-8.58 239.94-14.05L239.94-14.05L239.94-14.05Q240.96-19.52 241.06-21.89L241.06-21.89L241.06-21.89Q241.15-24.26 241.15-26.02L241.15-26.02L241.15-26.02Q241.15-27.78 240.64-28.93L240.64-28.93L240.64-28.93Q240.13-30.08 238.69-30.08L238.69-30.08L238.69-30.08Q237.25-30.08 236.29-29.18L236.29-29.18L236.29-29.18Q235.33-28.29 234.56-26.56ZM277.31-2.69L277.31-2.69L277.31-2.69Q274.24 1.28 266.62 1.28L266.62 1.28L266.62 1.28Q262.66 1.28 259.78-1.12L259.78-1.12L259.78-1.12Q256.90-3.52 256.90-6.98L256.90-6.98L256.90-6.98Q256.90-8.90 257.09-9.86L257.09-9.86L261.38-32.64L274.37-33.92L269.70-9.22L269.70-9.22Q269.44-7.81 269.44-6.98L269.44-6.98L269.44-6.98Q269.44-3.26 271.68-3.26L271.68-3.26L271.68-3.26Q274.18-3.26 275.97-6.66L275.97-6.66L275.97-6.66Q276.54-7.74 276.80-9.15L276.80-9.15L281.34-32.64L293.95-33.92L289.22-8.96L289.22-8.96Q289.02-8 289.02-6.98L289.02-6.98L289.02-6.98Q289.02-5.95 289.60-4.83L289.60-4.83L289.60-4.83Q290.18-3.71 292.03-3.46L292.03-3.46L292.03-3.46Q291.65-1.92 290.30-0.90L290.30-0.90L290.30-0.90Q287.49 1.28 284.45 1.28L284.45 1.28L284.45 1.28Q281.41 1.28 279.62 0.19L279.62 0.19L279.62 0.19Q277.82-0.90 277.31-2.69ZM333.82-31.55L333.82-31.55L333.82-31.55Q335.94-33.92 339.58-33.92L339.58-33.92L339.58-33.92Q341.82-33.92 343.55-32.70L343.55-32.70L343.55-32.70Q345.28-31.49 345.28-29.22L345.28-29.22L345.28-29.22Q345.28-26.94 344.58-24.51L344.58-24.51L344.58-24.51Q343.87-22.08 342.78-19.58L342.78-19.58L342.78-19.58Q340.61-14.72 337.60-10.69L337.60-10.69L337.60-10.69Q333.38-4.86 329.31-1.79L329.31-1.79L329.31-1.79Q325.25 1.28 320.83 1.28L320.83 1.28L320.83 1.28Q317.25 1.28 315.07 0.45L315.07 0.45L315.07 0.45Q314.69-12.99 314.21-17.79L314.21-17.79L314.21-17.79Q313.73-22.59 313.34-25.22L313.34-25.22L313.34-25.22Q312.70-30.34 310.78-31.55L310.78-31.55L310.78-31.55Q312.26-32.83 313.70-33.38L313.70-33.38L313.70-33.38Q315.14-33.92 318.11-33.92L318.11-33.92L318.11-33.92Q321.09-33.92 323.20-31.58L323.20-31.58L323.20-31.58Q325.31-29.25 325.73-25.12L325.73-25.12L325.73-25.12Q326.14-20.99 326.14-16L326.14-16L326.14-16Q326.14-11.01 325.76-4.99L325.76-4.99L325.76-4.99Q327.74-6.40 329.86-10.69L329.86-10.69L329.86-10.69Q332.74-16.64 333.76-23.81L333.76-23.81L333.76-23.81Q334.08-25.98 334.08-28.29L334.08-28.29L334.08-28.29Q334.08-30.59 333.82-31.55ZM372.93-10.82L372.93-10.82L372.93-10.82Q374.53-9.73 374.53-7.33L374.53-7.33L374.53-7.33Q374.53-4.93 373.31-3.39L373.31-3.39L373.31-3.39Q372.10-1.86 370.11-0.83L370.11-0.83L370.11-0.83Q366.02 1.28 361.60 1.28L361.60 1.28L361.60 1.28Q357.18 1.28 354.59 0.32L354.59 0.32L354.59 0.32Q352-0.64 350.27-2.43L350.27-2.43L350.27-2.43Q346.88-5.82 346.88-12.03L346.88-12.03L346.88-12.03Q346.88-21.70 352.13-27.58L352.13-27.58L352.13-27.58Q357.76-33.92 367.55-33.92L367.55-33.92L367.55-33.92Q373.63-33.92 376.64-31.36L376.64-31.36L376.64-31.36Q378.88-29.44 378.88-26.30L378.88-26.30L378.88-26.30Q378.88-15.04 359.42-15.04L359.42-15.04L359.42-15.04Q359.17-13.38 359.17-11.97L359.17-11.97L359.17-11.97Q359.17-9.02 360.48-7.90L360.48-7.90L360.48-7.90Q361.79-6.78 364.22-6.78L364.22-6.78L364.22-6.78Q366.66-6.78 369.25-7.90L369.25-7.90L369.25-7.90Q371.84-9.02 372.93-10.82ZM359.87-17.79L359.87-17.79L359.87-17.79Q364.42-17.79 367.04-20.61L367.04-20.61L367.04-20.61Q369.66-23.30 369.66-27.58L369.66-27.58L369.66-27.58Q369.66-29.06 369.12-29.86L369.12-29.86L369.12-29.86Q368.58-30.66 367.49-30.66L367.49-30.66L367.49-30.66Q366.40-30.66 365.47-30.24L365.47-30.24L365.47-30.24Q364.54-29.82 363.58-28.42L363.58-28.42L363.58-28.42Q361.22-25.22 359.87-17.79ZM401.09-17.98L401.09-17.98L401.09-17.98Q403.39-22.08 403.39-26.24L403.39-26.24L403.39-26.24Q403.39-28.99 401.41-28.99L401.41-28.99L401.41-28.99Q399.87-28.99 398.27-26.37L398.27-26.37L398.27-26.37Q396.61-23.74 396.10-20.35L396.10-20.35L392.77 0L379.52 1.28L386.05-32.64L396.61-33.92L395.46-27.46L395.46-27.46Q398.59-33.92 405.63-33.92L405.63-33.92L405.63-33.92Q409.34-33.92 411.36-32L411.36-32L411.36-32Q413.38-30.08 413.38-26.14L413.38-26.14L413.38-26.14Q413.38-22.21 410.78-19.71L410.78-19.71L410.78-19.71Q408.19-17.22 403.78-17.22L403.78-17.22L403.78-17.22Q401.86-17.22 401.09-17.98ZM434.75-7.23L434.75-7.23L434.75-7.23Q431.42-3.78 425.34-3.78L425.34-3.78L425.34-3.78Q417.73-3.78 416.13-9.34L416.13-9.34L416.13-9.34Q415.62-11.01 415.62-12.86L415.62-12.86L415.62-12.86Q415.62-14.72 416-16.64L416-16.64L419.01-32.64L432-33.92L428.48-15.30L428.48-15.30Q428.35-14.46 428.16-13.57L428.16-13.57L428.16-13.57Q427.97-12.67 427.97-11.74L427.97-11.74L427.97-11.74Q427.97-10.82 428.29-10.21L428.29-10.21L428.29-10.21Q428.61-9.60 429.06-9.22L429.06-9.22L429.06-9.22Q429.82-8.70 431.20-8.70L431.20-8.70L431.20-8.70Q432.58-8.70 433.76-10.37L433.76-10.37L433.76-10.37Q434.94-12.03 435.52-14.91L435.52-14.91L439.04-32.64L451.65-33.92L446.85-8.77L446.85-8.77Q444.48 3.52 439.62 8.38L439.62 8.38L439.62 8.38Q437.12 10.88 433.89 11.87L433.89 11.87L433.89 11.87Q430.66 12.86 426.50 12.86L426.50 12.86L426.50 12.86Q419.78 12.86 415.94 10.75L415.94 10.75L415.94 10.75Q412.10 8.64 412.10 5.12L412.10 5.12L412.10 5.12Q412.10 2.50 414.08 0.99L414.08 0.99L414.08 0.99Q416.06-0.51 419.14-0.51L419.14-0.51L419.14-0.51Q421.82-0.51 423.87 0.64L423.87 0.64L423.87 0.64Q425.09 1.34 425.66 2.24L425.66 2.24L425.66 2.24Q424.19 3.52 424.19 5.63L424.19 5.63L424.19 5.63Q424.19 8.45 426.75 8.45L426.75 8.45L426.75 8.45Q430.98 8.45 433.41-1.28L433.41-1.28L433.41-1.28Q434.11-4.16 434.75-7.23ZM490.37-31.55L490.37-31.55L490.37-31.55Q492.48-33.92 496.13-33.92L496.13-33.92L496.13-33.92Q498.37-33.92 500.10-32.70L500.10-32.70L500.10-32.70Q501.82-31.49 501.82-29.22L501.82-29.22L501.82-29.22Q501.82-26.94 501.12-24.51L501.12-24.51L501.12-24.51Q500.42-22.08 499.33-19.58L499.33-19.58L499.33-19.58Q497.15-14.72 494.14-10.69L494.14-10.69L494.14-10.69Q489.92-4.86 485.86-1.79L485.86-1.79L485.86-1.79Q481.79 1.28 477.38 1.28L477.38 1.28L477.38 1.28Q473.79 1.28 471.62 0.45L471.62 0.45L471.62 0.45Q471.23-12.99 470.75-17.79L470.75-17.79L470.75-17.79Q470.27-22.59 469.89-25.22L469.89-25.22L469.89-25.22Q469.25-30.34 467.33-31.55L467.33-31.55L467.33-31.55Q468.80-32.83 470.24-33.38L470.24-33.38L470.24-33.38Q471.68-33.92 474.66-33.92L474.66-33.92L474.66-33.92Q477.63-33.92 479.74-31.58L479.74-31.58L479.74-31.58Q481.86-29.25 482.27-25.12L482.27-25.12L482.27-25.12Q482.69-20.99 482.69-16L482.69-16L482.69-16Q482.69-11.01 482.30-4.99L482.30-4.99L482.30-4.99Q484.29-6.40 486.40-10.69L486.40-10.69L486.40-10.69Q489.28-16.64 490.30-23.81L490.30-23.81L490.30-23.81Q490.62-25.98 490.62-28.29L490.62-28.29L490.62-28.29Q490.62-30.59 490.37-31.55ZM529.47-10.82L529.47-10.82L529.47-10.82Q531.07-9.73 531.07-7.33L531.07-7.33L531.07-7.33Q531.07-4.93 529.86-3.39L529.86-3.39L529.86-3.39Q528.64-1.86 526.66-0.83L526.66-0.83L526.66-0.83Q522.56 1.28 518.14 1.28L518.14 1.28L518.14 1.28Q513.73 1.28 511.14 0.32L511.14 0.32L511.14 0.32Q508.54-0.64 506.82-2.43L506.82-2.43L506.82-2.43Q503.42-5.82 503.42-12.03L503.42-12.03L503.42-12.03Q503.42-21.70 508.67-27.58L508.67-27.58L508.67-27.58Q514.30-33.92 524.10-33.92L524.10-33.92L524.10-33.92Q530.18-33.92 533.18-31.36L533.18-31.36L533.18-31.36Q535.42-29.44 535.42-26.30L535.42-26.30L535.42-26.30Q535.42-15.04 515.97-15.04L515.97-15.04L515.97-15.04Q515.71-13.38 515.71-11.97L515.71-11.97L515.71-11.97Q515.71-9.02 517.02-7.90L517.02-7.90L517.02-7.90Q518.34-6.78 520.77-6.78L520.77-6.78L520.77-6.78Q523.20-6.78 525.79-7.90L525.79-7.90L525.79-7.90Q528.38-9.02 529.47-10.82ZM516.42-17.79L516.42-17.79L516.42-17.79Q520.96-17.79 523.58-20.61L523.58-20.61L523.58-20.61Q526.21-23.30 526.21-27.58L526.21-27.58L526.21-27.58Q526.21-29.06 525.66-29.86L525.66-29.86L525.66-29.86Q525.12-30.66 524.03-30.66L524.03-30.66L524.03-30.66Q522.94-30.66 522.02-30.24L522.02-30.24L522.02-30.24Q521.09-29.82 520.13-28.42L520.13-28.42L520.13-28.42Q517.76-25.22 516.42-17.79ZM557.63-17.98L557.63-17.98L557.63-17.98Q559.94-22.08 559.94-26.24L559.94-26.24L559.94-26.24Q559.94-28.99 557.95-28.99L557.95-28.99L557.95-28.99Q556.42-28.99 554.82-26.37L554.82-26.37L554.82-26.37Q553.15-23.74 552.64-20.35L552.64-20.35L549.31 0L536.06 1.28L542.59-32.64L553.15-33.92L552-27.46L552-27.46Q555.14-33.92 562.18-33.92L562.18-33.92L562.18-33.92Q565.89-33.92 567.90-32L567.90-32L567.90-32Q569.92-30.08 569.92-26.14L569.92-26.14L569.92-26.14Q569.92-22.21 567.33-19.71L567.33-19.71L567.33-19.71Q564.74-17.22 560.32-17.22L560.32-17.22L560.32-17.22Q558.40-17.22 557.63-17.98ZM591.30-7.23L591.30-7.23L591.30-7.23Q587.97-3.78 581.89-3.78L581.89-3.78L581.89-3.78Q574.27-3.78 572.67-9.34L572.67-9.34L572.67-9.34Q572.16-11.01 572.16-12.86L572.16-12.86L572.16-12.86Q572.16-14.72 572.54-16.64L572.54-16.64L575.55-32.64L588.54-33.92L585.02-15.30L585.02-15.30Q584.90-14.46 584.70-13.57L584.70-13.57L584.70-13.57Q584.51-12.67 584.51-11.74L584.51-11.74L584.51-11.74Q584.51-10.82 584.83-10.21L584.83-10.21L584.83-10.21Q585.15-9.60 585.60-9.22L585.60-9.22L585.60-9.22Q586.37-8.70 587.74-8.70L587.74-8.70L587.74-8.70Q589.12-8.70 590.30-10.37L590.30-10.37L590.30-10.37Q591.49-12.03 592.06-14.91L592.06-14.91L595.58-32.64L608.19-33.92L603.39-8.77L603.39-8.77Q601.02 3.52 596.16 8.38L596.16 8.38L596.16 8.38Q593.66 10.88 590.43 11.87L590.43 11.87L590.43 11.87Q587.20 12.86 583.04 12.86L583.04 12.86L583.04 12.86Q576.32 12.86 572.48 10.75L572.48 10.75L572.48 10.75Q568.64 8.64 568.64 5.12L568.64 5.12L568.64 5.12Q568.64 2.50 570.62 0.99L570.62 0.99L570.62 0.99Q572.61-0.51 575.68-0.51L575.68-0.51L575.68-0.51Q578.37-0.51 580.42 0.64L580.42 0.64L580.42 0.64Q581.63 1.34 582.21 2.24L582.21 2.24L582.21 2.24Q580.74 3.52 580.74 5.63L580.74 5.63L580.74 5.63Q580.74 8.45 583.30 8.45L583.30 8.45L583.30 8.45Q587.52 8.45 589.95-1.28L589.95-1.28L589.95-1.28Q590.66-4.16 591.30-7.23ZM669.76 1.28L669.76 1.28L669.76 1.28Q662.02 1.28 662.02-4.74L662.02-4.74L662.02-4.74Q662.02-7.36 663.14-12.45L663.14-12.45L663.14-12.45Q664.26-17.54 664.64-19.58L664.64-19.58L664.64-19.58Q665.54-24.26 665.54-25.73L665.54-25.73L665.54-25.73Q665.54-28.99 663.10-28.99L663.10-28.99L663.10-28.99Q661.50-28.99 659.97-26.78L659.97-26.78L659.97-26.78Q658.43-24.58 657.73-20.16L657.73-20.16L653.76 0L641.28 1.28L644.74-16.13L644.74-16.13Q645.31-19.01 645.82-22.27L645.82-22.27L645.82-22.27Q646.34-25.54 646.34-26.05L646.34-26.05L646.34-26.05Q646.34-28.99 644.16-28.99L644.16-28.99L644.16-28.99Q642.69-28.99 641.09-26.82L641.09-26.82L641.09-26.82Q639.49-24.64 638.59-20.16L638.59-20.16L634.69 0L622.08 1.28L628.80-32.64L639.23-33.92L638.14-27.46L638.14-27.46Q639.81-30.91 642.88-32.42L642.88-32.42L642.88-32.42Q645.95-33.92 650.75-33.92L650.75-33.92L650.75-33.92Q653.50-33.92 655.30-32.58L655.30-32.58L655.30-32.58Q657.09-31.23 657.66-29.06L657.66-29.06L657.66-29.06Q658.75-31.30 661.54-32.61L661.54-32.61L661.54-32.61Q664.32-33.92 667.74-33.92L667.74-33.92L667.74-33.92Q671.17-33.92 672.86-33.18L672.86-33.18L672.86-33.18Q674.56-32.45 675.58-31.23L675.58-31.23L675.58-31.23Q677.31-28.99 677.31-24.90L677.31-24.90L677.31-24.90Q677.31-20.86 675.58-12.48L675.58-12.48L675.58-12.48Q674.69-8.38 674.69-6.88L674.69-6.88L674.69-6.88Q674.69-5.38 675.55-4.48L675.55-4.48L675.55-4.48Q676.42-3.58 677.70-3.46L677.70-3.46L677.70-3.46Q677.06-1.28 674.85 0L674.85 0L674.85 0Q672.64 1.28 669.76 1.28ZM703.17-2.69L703.17-2.69L703.17-2.69Q700.10 1.28 692.48 1.28L692.48 1.28L692.48 1.28Q688.51 1.28 685.63-1.12L685.63-1.12L685.63-1.12Q682.75-3.52 682.75-6.98L682.75-6.98L682.75-6.98Q682.75-8.90 682.94-9.86L682.94-9.86L687.23-32.64L700.22-33.92L695.55-9.22L695.55-9.22Q695.30-7.81 695.30-6.98L695.30-6.98L695.30-6.98Q695.30-3.26 697.54-3.26L697.54-3.26L697.54-3.26Q700.03-3.26 701.82-6.66L701.82-6.66L701.82-6.66Q702.40-7.74 702.66-9.15L702.66-9.15L707.20-32.64L719.81-33.92L715.07-8.96L715.07-8.96Q714.88-8 714.88-6.98L714.88-6.98L714.88-6.98Q714.88-5.95 715.46-4.83L715.46-4.83L715.46-4.83Q716.03-3.71 717.89-3.46L717.89-3.46L717.89-3.46Q717.50-1.92 716.16-0.90L716.16-0.90L716.16-0.90Q713.34 1.28 710.30 1.28L710.30 1.28L710.30 1.28Q707.26 1.28 705.47 0.19L705.47 0.19L705.47 0.19Q703.68-0.90 703.17-2.69ZM754.43-26.62L754.43-26.62L754.43-26.62Q754.43-23.94 752.19-22.27L752.19-22.27L752.19-22.27Q749.95-20.61 746.30-20.61L746.30-20.61L746.30-20.61Q744.77-20.61 743.87-21.06L743.87-21.06L743.87-21.06Q744.58-22.72 744.80-24.80L744.80-24.80L744.80-24.80Q745.02-26.88 745.02-27.46L745.02-27.46L745.02-27.46Q745.02-30.14 743.17-30.14L743.17-30.14L743.17-30.14Q741.89-30.14 740.45-28.54L740.45-28.54L740.45-28.54Q739.01-26.94 737.79-24.45L737.79-24.45L737.79-24.45Q735.10-18.69 735.10-12.86L735.10-12.86L735.10-12.86Q735.10-9.66 736.32-8.22L736.32-8.22L736.32-8.22Q737.54-6.78 740.22-6.78L740.22-6.78L740.22-6.78Q743.94-6.78 746.88-9.86L746.88-9.86L746.88-9.86Q747.71-10.82 748.16-11.90L748.16-11.90L748.16-11.90Q750.59-10.62 750.59-7.10L750.59-7.10L750.59-7.10Q750.59-3.52 746.62-1.15L746.62-1.15L746.62-1.15Q742.53 1.28 736.00 1.28L736.00 1.28L736.00 1.28Q723.01 1.28 723.01-12.48L723.01-12.48L723.01-12.48Q723.01-22.53 728.70-28.29L728.70-28.29L728.70-28.29Q734.21-33.92 744.32-33.92L744.32-33.92L744.32-33.92Q754.43-33.92 754.43-26.62ZM788.35-7.10L788.35-7.10L788.35-7.10Q788.35-4.29 791.23-3.46L791.23-3.46L791.23-3.46Q790.53-1.09 787.78 0.19L787.78 0.19L787.78 0.19Q785.47 1.28 782.94 1.28L782.94 1.28L782.94 1.28Q780.42 1.28 779.10 0.61L779.10 0.61L779.10 0.61Q777.79-0.06 777.09-1.15L777.09-1.15L777.09-1.15Q775.94-2.82 775.94-5.95L775.94-5.95L775.94-5.95Q775.94-7.81 776.96-12.93L776.96-12.93L777.86-17.79L777.86-17.79Q778.94-23.36 778.94-25.41L778.94-25.41L778.94-25.41Q778.94-28.99 776.96-28.99L776.96-28.99L776.96-28.99Q774.46-28.99 772.86-25.34L772.86-25.34L772.86-25.34Q772.22-23.94 771.78-21.82L771.78-21.82L767.42 0L754.56 1.28L763.58-44.80L776.45-46.08L775.94-43.52L775.94-43.52Q774.14-33.66 772.61-30.34L772.61-30.34L772.61-30.34Q776.19-33.92 782.78-33.92L782.78-33.92L782.78-33.92Q789.76-33.92 791.04-29.31L791.04-29.31L791.04-29.31Q791.49-27.84 791.49-26.56L791.49-26.56L791.49-26.56Q791.49-25.28 791.39-24.29L791.39-24.29L791.39-24.29Q791.30-23.30 790.98-21.50L790.98-21.50L790.14-16.90L788.67-9.66L788.67-9.66Q788.35-8.19 788.35-7.10Z" fill="url(#editing-shiny-gradient2)"></path></g></g><style>text {
  font-size: 64px;
  font-family: Arial Black;
  dominant-baseline: central;
  text-anchor: middle;
}</style></svg>